<svg width="32" height="34" viewBox="0 0 32 34" fill="none" xmlns="http://www.w3.org/2000/svg">
<g clip-path="url(#clip0_6_2883)">
<rect width="1.33333" height="1.41667" transform="translate(2.66669 17)" fill="black"/>
<rect width="1.33333" height="1.41667" transform="translate(2.66669 18.4167)" fill="black"/>
<rect width="1.33333" height="1.41667" transform="translate(2.66669 19.8333)" fill="black"/>
<rect width="1.33333" height="1.41667" transform="translate(2.66669 21.25)" fill="black"/>
<rect width="1.33333" height="1.41667" transform="translate(2.66669 22.6667)" fill="black"/>
<rect width="1.33333" height="1.41667" transform="translate(2.66669 24.0833)" fill="black"/>
<rect width="1.33333" height="1.41667" transform="translate(4 15.5833)" fill="black"/>
<rect width="1.33333" height="1.41667" transform="translate(4 17)" fill="#F0DFC4"/>
<rect width="1.33333" height="1.41667" transform="translate(4 18.4167)" fill="#FBF3E4"/>
<rect width="1.33333" height="1.41667" transform="translate(4 19.8333)" fill="#C8A072"/>
<rect width="1.33333" height="1.41667" transform="translate(4 21.25)" fill="#C8A072"/>
<rect width="1.33333" height="1.41667" transform="translate(4 22.6667)" fill="#C8A072"/>
<rect width="1.33333" height="1.41667" transform="translate(4 24.0833)" fill="#C8A072"/>
<rect width="1.33333" height="1.41667" transform="translate(4 25.5)" fill="black"/>
<rect width="1.33333" height="1.41667" transform="translate(4 26.9167)" fill="black"/>
<rect width="1.33333" height="1.41667" transform="translate(5.33331 15.5833)" fill="black"/>
<rect width="1.33333" height="1.41667" transform="translate(5.33331 17)" fill="#FBF3E4"/>
<rect width="1.33333" height="1.41667" transform="translate(5.33331 18.4167)" fill="#F0DFC4"/>
<rect width="1.33333" height="1.41667" transform="translate(5.33331 19.8333)" fill="#F0DFC4"/>
<rect width="1.33333" height="1.41667" transform="translate(5.33331 21.25)" fill="#F0DFC4"/>
<rect width="1.33333" height="1.41667" transform="translate(5.33331 22.6667)" fill="#F0DFC4"/>
<rect width="1.33333" height="1.41667" transform="translate(5.33331 24.0833)" fill="#C8A072"/>
<rect width="1.33333" height="1.41667" transform="translate(5.33331 25.5)" fill="#C8A072"/>
<rect width="1.33333" height="1.41667" transform="translate(5.33331 26.9167)" fill="#C8A072"/>
<rect width="1.33333" height="1.41667" transform="translate(5.33331 28.3333)" fill="black"/>
<rect width="1.33333" height="1.41667" transform="translate(5.33331 29.75)" fill="black"/>
<rect width="1.33333" height="1.41667" transform="translate(6.66669 4.25)" fill="black"/>
<rect width="1.33333" height="1.41667" transform="translate(6.66669 5.66666)" fill="black"/>
<rect width="1.33333" height="1.41667" transform="translate(6.66669 7.08334)" fill="black"/>
<rect width="1.33333" height="1.41667" transform="translate(6.66669 8.5)" fill="black"/>
<rect width="1.33333" height="1.41667" transform="translate(6.66669 9.91666)" fill="black"/>
<rect width="1.33333" height="1.41667" transform="translate(6.66669 11.3333)" fill="black"/>
<rect width="1.33333" height="1.41667" transform="translate(6.66669 12.75)" fill="black"/>
<rect width="1.33333" height="1.41667" transform="translate(6.66669 14.1667)" fill="black"/>
<rect width="1.33333" height="1.41667" transform="translate(6.66669 15.5833)" fill="black"/>
<rect width="1.33333" height="1.41667" transform="translate(6.66669 17)" fill="#FBF3E4"/>
<rect width="1.33333" height="1.41667" transform="translate(6.66669 18.4167)" fill="#F0DFC4"/>
<rect width="1.33333" height="1.41667" transform="translate(6.66669 19.8333)" fill="#F0DFC4"/>
<rect width="1.33333" height="1.41667" transform="translate(6.66669 21.25)" fill="#F0DFC4"/>
<rect width="1.33333" height="1.41667" transform="translate(6.66669 22.6667)" fill="#F0DFC4"/>
<rect width="1.33333" height="1.41667" transform="translate(6.66669 24.0833)" fill="#F0DFC4"/>
<rect width="1.33333" height="1.41667" transform="translate(6.66669 25.5)" fill="#C8A072"/>
<rect width="1.33333" height="1.41667" transform="translate(6.66669 26.9167)" fill="#C8A072"/>
<rect width="1.33333" height="1.41667" transform="translate(6.66669 28.3333)" fill="#C8A072"/>
<rect width="1.33333" height="1.41667" transform="translate(6.66669 29.75)" fill="#C8A072"/>
<rect width="1.33333" height="1.41667" transform="translate(6.66669 31.1667)" fill="black"/>
<rect width="1.33333" height="1.41667" transform="translate(8 2.83334)" fill="black"/>
<rect width="1.33333" height="1.41667" transform="translate(8 4.25)" fill="#C8A072"/>
<rect width="1.33333" height="1.41667" transform="translate(8 5.66666)" fill="#C8A072"/>
<rect width="1.33333" height="1.41667" transform="translate(8 7.08334)" fill="#C8A072"/>
<rect width="1.33333" height="1.41667" transform="translate(8 8.5)" fill="#C8A072"/>
<rect width="1.33333" height="1.41667" transform="translate(8 9.91666)" fill="#C8A072"/>
<rect width="1.33333" height="1.41667" transform="translate(8 11.3333)" fill="#C8A072"/>
<rect width="1.33333" height="1.41667" transform="translate(8 12.75)" fill="#C8A072"/>
<rect width="1.33333" height="1.41667" transform="translate(8 14.1667)" fill="#C8A072"/>
<rect width="1.33333" height="1.41667" transform="translate(8 15.5833)" fill="#F0DFC4"/>
<rect width="1.33333" height="1.41667" transform="translate(8 17)" fill="#FBF3E4"/>
<rect width="1.33333" height="1.41667" transform="translate(8 18.4167)" fill="#F0DFC4"/>
<rect width="1.33333" height="1.41667" transform="translate(8 19.8333)" fill="#F0DFC4"/>
<rect width="1.33333" height="1.41667" transform="translate(8 21.25)" fill="#F0DFC4"/>
<rect width="1.33333" height="1.41667" transform="translate(8 22.6667)" fill="#F0DFC4"/>
<rect width="1.33333" height="1.41667" transform="translate(8 24.0833)" fill="#F0DFC4"/>
<rect width="1.33333" height="1.41667" transform="translate(8 25.5)" fill="#F0DFC4"/>
<rect width="1.33333" height="1.41667" transform="translate(8 26.9167)" fill="#F0DFC4"/>
<rect width="1.33333" height="1.41667" transform="translate(8 28.3333)" fill="#C8A072"/>
<rect width="1.33333" height="1.41667" transform="translate(8 29.75)" fill="#C8A072"/>
<rect width="1.33333" height="1.41667" transform="translate(8 31.1667)" fill="black"/>
<rect width="1.33333" height="1.41667" transform="translate(9.33331 1.41666)" fill="black"/>
<rect width="1.33333" height="1.41667" transform="translate(9.33331 2.83334)" fill="#C8A072"/>
<rect width="1.33333" height="1.41667" transform="translate(9.33331 4.25)" fill="#F0DFC4"/>
<rect width="1.33333" height="1.41667" transform="translate(9.33331 5.66666)" fill="#F0DFC4"/>
<rect width="1.33333" height="1.41667" transform="translate(9.33331 7.08334)" fill="#F0DFC4"/>
<rect width="1.33333" height="1.41667" transform="translate(9.33331 8.5)" fill="#F0DFC4"/>
<rect width="1.33333" height="1.41667" transform="translate(9.33331 9.91666)" fill="#F0DFC4"/>
<rect width="1.33333" height="1.41667" transform="translate(9.33331 11.3333)" fill="#F0DFC4"/>
<rect width="1.33333" height="1.41667" transform="translate(9.33331 12.75)" fill="#C8A072"/>
<rect width="1.33333" height="1.41667" transform="translate(9.33331 14.1667)" fill="#C8A072"/>
<rect width="1.33333" height="1.41667" transform="translate(9.33331 15.5833)" fill="#F0DFC4"/>
<rect width="1.33333" height="1.41667" transform="translate(9.33331 17)" fill="#FBF3E4"/>
<rect width="1.33333" height="1.41667" transform="translate(9.33331 18.4167)" fill="#C8A072"/>
<rect width="1.33333" height="1.41667" transform="translate(9.33331 19.8333)" fill="#C8A072"/>
<rect width="1.33333" height="1.41667" transform="translate(9.33331 21.25)" fill="#C8A072"/>
<rect width="1.33333" height="1.41667" transform="translate(9.33331 22.6667)" fill="#C8A072"/>
<rect width="1.33333" height="1.41667" transform="translate(9.33331 24.0833)" fill="#C8A072"/>
<rect width="1.33333" height="1.41667" transform="translate(9.33331 25.5)" fill="#C8A072"/>
<rect width="1.33333" height="1.41667" transform="translate(9.33331 26.9167)" fill="#C8A072"/>
<rect width="1.33333" height="1.41667" transform="translate(9.33331 28.3333)" fill="#C8A072"/>
<rect width="1.33333" height="1.41667" transform="translate(9.33331 29.75)" fill="#C8A072"/>
<rect width="1.33333" height="1.41667" transform="translate(9.33331 31.1667)" fill="black"/>
<rect width="1.33333" height="1.41667" transform="translate(10.6667 1.41666)" fill="black"/>
<rect width="1.33333" height="1.41667" transform="translate(10.6667 2.83334)" fill="#F0DFC4"/>
<rect width="1.33333" height="1.41667" transform="translate(10.6667 4.25)" fill="#FBF3E4"/>
<rect width="1.33333" height="1.41667" transform="translate(10.6667 5.66666)" fill="#FBF3E4"/>
<rect width="1.33333" height="1.41667" transform="translate(10.6667 7.08334)" fill="#FBF3E4"/>
<rect width="1.33333" height="1.41667" transform="translate(10.6667 8.5)" fill="#FBF3E4"/>
<rect width="1.33333" height="1.41667" transform="translate(10.6667 9.91666)" fill="#FBF3E4"/>
<rect width="1.33333" height="1.41667" transform="translate(10.6667 11.3333)" fill="#FBF3E4"/>
<rect width="1.33333" height="1.41667" transform="translate(10.6667 12.75)" fill="#F0DFC4"/>
<rect width="1.33333" height="1.41667" transform="translate(10.6667 14.1667)" fill="#F0DFC4"/>
<rect width="1.33333" height="1.41667" transform="translate(10.6667 15.5833)" fill="#F0DFC4"/>
<rect width="1.33333" height="1.41667" transform="translate(10.6667 17)" fill="#D49725"/>
<rect width="1.33333" height="1.41667" transform="translate(10.6667 18.4167)" fill="#D49725"/>
<rect width="1.33333" height="1.41667" transform="translate(10.6667 19.8333)" fill="#D49725"/>
<rect width="1.33333" height="1.41667" transform="translate(10.6667 21.25)" fill="#D49725"/>
<rect width="1.33333" height="1.41667" transform="translate(10.6667 22.6667)" fill="#D49725"/>
<rect width="1.33333" height="1.41667" transform="translate(10.6667 24.0833)" fill="black"/>
<rect width="1.33333" height="1.41667" transform="translate(10.6667 25.5)" fill="black"/>
<rect width="1.33333" height="1.41667" transform="translate(10.6667 26.9167)" fill="black"/>
<rect width="1.33333" height="1.41667" transform="translate(10.6667 28.3333)" fill="black"/>
<rect width="1.33333" height="1.41667" transform="translate(10.6667 29.75)" fill="black"/>
<rect width="1.33333" height="1.41667" transform="translate(12 2.83334)" fill="black"/>
<rect width="1.33333" height="1.41667" transform="translate(12 4.25)" fill="#F0DFC4"/>
<rect width="1.33333" height="1.41667" transform="translate(12 5.66666)" fill="#F0DFC4"/>
<rect width="1.33333" height="1.41667" transform="translate(12 7.08334)" fill="#F0DFC4"/>
<rect width="1.33333" height="1.41667" transform="translate(12 8.5)" fill="#F0DFC4"/>
<rect width="1.33333" height="1.41667" transform="translate(12 9.91666)" fill="#F0DFC4"/>
<rect width="1.33333" height="1.41667" transform="translate(12 11.3333)" fill="#F0DFC4"/>
<rect width="1.33333" height="1.41667" transform="translate(12 12.75)" fill="#FBF3E4"/>
<rect width="1.33333" height="1.41667" transform="translate(12 14.1667)" fill="#F0DFC4"/>
<rect width="1.33333" height="1.41667" transform="translate(12 15.5833)" fill="#F0DFC4"/>
<rect width="1.33333" height="1.41667" transform="translate(12 17)" fill="#D49725"/>
<rect width="1.33333" height="1.41667" transform="translate(12 18.4167)" fill="#D49725"/>
<rect width="1.33333" height="1.41667" transform="translate(12 19.8333)" fill="#D49725"/>
<rect width="1.33333" height="1.41667" transform="translate(12 21.25)" fill="#D49725"/>
<rect width="1.33333" height="1.41667" transform="translate(12 22.6667)" fill="#D49725"/>
<rect width="1.33333" height="1.41667" transform="translate(12 24.0833)" fill="#D49725"/>
<rect width="1.33333" height="1.41667" transform="translate(12 25.5)" fill="black"/>
<rect width="1.33333" height="1.41667" transform="translate(13.3333 4.25)" fill="black"/>
<rect width="1.33333" height="1.41667" transform="translate(13.3333 5.66666)" fill="black"/>
<rect width="1.33333" height="1.41667" transform="translate(13.3333 7.08334)" fill="black"/>
<rect width="1.33333" height="1.41667" transform="translate(13.3333 8.5)" fill="black"/>
<rect width="1.33333" height="1.41667" transform="translate(13.3333 9.91666)" fill="black"/>
<rect width="1.33333" height="1.41667" transform="translate(13.3333 11.3333)" fill="black"/>
<rect width="1.33333" height="1.41667" transform="translate(13.3333 12.75)" fill="#C8A072"/>
<rect width="1.33333" height="1.41667" transform="translate(13.3333 14.1667)" fill="#F0DFC4"/>
<rect width="1.33333" height="1.41667" transform="translate(13.3333 15.5833)" fill="#F3AC2C"/>
<rect width="1.33333" height="1.41667" transform="translate(13.3333 17)" fill="#F3AC2C"/>
<rect width="1.33333" height="1.41667" transform="translate(13.3333 18.4167)" fill="#FEDF67"/>
<rect width="1.33333" height="1.41667" transform="translate(13.3333 19.8333)" fill="#FEDF67"/>
<rect width="1.33333" height="1.41667" transform="translate(13.3333 21.25)" fill="#FEDF67"/>
<rect width="1.33333" height="1.41667" transform="translate(13.3333 22.6667)" fill="#FEDF67"/>
<rect width="1.33333" height="1.41667" transform="translate(13.3333 24.0833)" fill="#D49725"/>
<rect width="1.33333" height="1.41667" transform="translate(13.3333 25.5)" fill="#D49725"/>
<rect width="1.33333" height="1.41667" transform="translate(13.3333 26.9167)" fill="black"/>
<rect width="1.33333" height="1.41667" transform="translate(14.6667 12.75)" fill="black"/>
<rect width="1.33333" height="1.41667" transform="translate(14.6667 14.1667)" fill="#F3AC2C"/>
<rect width="1.33333" height="1.41667" transform="translate(14.6667 15.5833)" fill="#F3AC2C"/>
<rect width="1.33333" height="1.41667" transform="translate(14.6667 17)" fill="#F3AC2C"/>
<rect width="1.33333" height="1.41667" transform="translate(14.6667 18.4167)" fill="#F3AC2C"/>
<rect width="1.33333" height="1.41667" transform="translate(14.6667 19.8333)" fill="#FEDF67"/>
<rect width="1.33333" height="1.41667" transform="translate(14.6667 21.25)" fill="#FEDF67"/>
<rect width="1.33333" height="1.41667" transform="translate(14.6667 22.6667)" fill="#FEDF67"/>
<rect width="1.33333" height="1.41667" transform="translate(14.6667 24.0833)" fill="#FEDF67"/>
<rect width="1.33333" height="1.41667" transform="translate(14.6667 25.5)" fill="#FEDF67"/>
<rect width="1.33333" height="1.41667" transform="translate(14.6667 26.9167)" fill="#FEDF67"/>
<rect width="1.33333" height="1.41667" transform="translate(14.6667 28.3333)" fill="black"/>
<rect width="1.33333" height="1.41667" transform="translate(16 11.3333)" fill="black"/>
<rect width="1.33333" height="1.41667" transform="translate(16 12.75)" fill="#FBF3E4"/>
<rect width="1.33333" height="1.41667" transform="translate(16 14.1667)" fill="black"/>
<rect width="1.33333" height="1.41667" transform="translate(16 15.5833)" fill="black"/>
<rect width="1.33333" height="1.41667" transform="translate(16 17)" fill="black"/>
<rect width="1.33333" height="1.41667" transform="translate(16 18.4167)" fill="#D49725"/>
<rect width="1.33333" height="1.41667" transform="translate(16 19.8333)" fill="#FEDF67"/>
<rect width="1.33333" height="1.41667" transform="translate(16 21.25)" fill="#FEDF67"/>
<rect width="1.33333" height="1.41667" transform="translate(16 22.6667)" fill="#FEDF67"/>
<rect width="1.33333" height="1.41667" transform="translate(16 24.0833)" fill="#FEDF67"/>
<rect width="1.33333" height="1.41667" transform="translate(16 25.5)" fill="#FEDF67"/>
<rect width="1.33333" height="1.41667" transform="translate(16 26.9167)" fill="#FEDF67"/>
<rect width="1.33333" height="1.41667" transform="translate(16 28.3333)" fill="black"/>
<rect width="1.33333" height="1.41667" transform="translate(17.3333 9.91666)" fill="black"/>
<rect width="1.33333" height="1.41667" transform="translate(17.3333 11.3333)" fill="#FBF3E4"/>
<rect width="1.33333" height="1.41667" transform="translate(17.3333 12.75)" fill="#FBF3E4"/>
<rect width="1.33333" height="1.41667" transform="translate(17.3333 14.1667)" fill="black"/>
<rect width="1.33333" height="1.41667" transform="translate(17.3333 18.4167)" fill="black"/>
<rect width="1.33333" height="1.41667" transform="translate(17.3333 19.8333)" fill="#D49725"/>
<rect width="1.33333" height="1.41667" transform="translate(17.3333 21.25)" fill="#FEDF67"/>
<rect width="1.33333" height="1.41667" transform="translate(17.3333 22.6667)" fill="#FEDF67"/>
<rect width="1.33333" height="1.41667" transform="translate(17.3333 24.0833)" fill="#FEDF67"/>
<rect width="1.33333" height="1.41667" transform="translate(17.3333 25.5)" fill="#FEDF67"/>
<rect width="1.33333" height="1.41667" transform="translate(17.3333 26.9167)" fill="#FEDF67"/>
<rect width="1.33333" height="1.41667" transform="translate(17.3333 28.3333)" fill="#FEDF67"/>
<rect width="1.33333" height="1.41667" transform="translate(17.3333 29.75)" fill="black"/>
<rect width="1.33333" height="1.41667" transform="translate(18.6667 9.91666)" fill="black"/>
<rect width="1.33333" height="1.41667" transform="translate(18.6667 11.3333)" fill="#FBF3E4"/>
<rect width="1.33333" height="1.41667" transform="translate(18.6667 12.75)" fill="#FBF3E4"/>
<rect width="1.33333" height="1.41667" transform="translate(18.6667 14.1667)" fill="black"/>
<rect width="1.33333" height="1.41667" transform="translate(18.6667 19.8333)" fill="black"/>
<rect width="1.33333" height="1.41667" transform="translate(18.6667 21.25)" fill="#D49725"/>
<rect width="1.33333" height="1.41667" transform="translate(18.6667 22.6667)" fill="#FEDF67"/>
<rect width="1.33333" height="1.41667" transform="translate(18.6667 24.0833)" fill="#FEDF67"/>
<rect width="1.33333" height="1.41667" transform="translate(18.6667 25.5)" fill="#FEDF67"/>
<rect width="1.33333" height="1.41667" transform="translate(18.6667 26.9167)" fill="#FEDF67"/>
<rect width="1.33333" height="1.41667" transform="translate(18.6667 28.3333)" fill="#FEDF67"/>
<rect width="1.33333" height="1.41667" transform="translate(18.6667 29.75)" fill="black"/>
<rect width="1.33333" height="1.41667" transform="translate(20 11.3333)" fill="black"/>
<rect width="1.33333" height="1.41667" transform="translate(20 12.75)" fill="#FBF3E4"/>
<rect width="1.33333" height="1.41667" transform="translate(20 14.1667)" fill="#F0DFC4"/>
<rect width="1.33333" height="1.41667" transform="translate(20 15.5833)" fill="black"/>
<rect width="1.33333" height="1.41667" transform="translate(20 21.25)" fill="black"/>
<rect width="1.33333" height="1.41667" transform="translate(20 22.6667)" fill="#FEDF67"/>
<rect width="1.33333" height="1.41667" transform="translate(20 24.0833)" fill="#FEDF67"/>
<rect width="1.33333" height="1.41667" transform="translate(20 25.5)" fill="#FEDF67"/>
<rect width="1.33333" height="1.41667" transform="translate(20 26.9167)" fill="#FEDF67"/>
<rect width="1.33333" height="1.41667" transform="translate(20 28.3333)" fill="#FEDF67"/>
<rect width="1.33333" height="1.41667" transform="translate(20 29.75)" fill="black"/>
<rect width="1.33333" height="1.41667" transform="translate(21.3333 11.3333)" fill="black"/>
<rect width="1.33333" height="1.41667" transform="translate(21.3333 12.75)" fill="#F0DFC4"/>
<rect width="1.33333" height="1.41667" transform="translate(21.3333 14.1667)" fill="#F0DFC4"/>
<rect width="1.33333" height="1.41667" transform="translate(21.3333 15.5833)" fill="#F0DFC4"/>
<rect width="1.33333" height="1.41667" transform="translate(21.3333 17)" fill="black"/>
<rect width="1.33333" height="1.41667" transform="translate(21.3333 22.6667)" fill="black"/>
<rect width="1.33333" height="1.41667" transform="translate(21.3333 24.0833)" fill="#FEDF67"/>
<rect width="1.33333" height="1.41667" transform="translate(21.3333 25.5)" fill="#FEDF67"/>
<rect width="1.33333" height="1.41667" transform="translate(21.3333 26.9167)" fill="#FEDF67"/>
<rect width="1.33333" height="1.41667" transform="translate(21.3333 28.3333)" fill="#FEDF67"/>
<rect width="1.33333" height="1.41667" transform="translate(21.3333 29.75)" fill="black"/>
<rect width="1.33333" height="1.41667" transform="translate(22.6667 12.75)" fill="black"/>
<rect width="1.33333" height="1.41667" transform="translate(22.6667 14.1667)" fill="#F0DFC4"/>
<rect width="1.33333" height="1.41667" transform="translate(22.6667 15.5833)" fill="#F0DFC4"/>
<rect width="1.33333" height="1.41667" transform="translate(22.6667 17)" fill="#F0DFC4"/>
<rect width="1.33333" height="1.41667" transform="translate(22.6667 18.4167)" fill="black"/>
<rect width="1.33333" height="1.41667" transform="translate(22.6667 22.6667)" fill="black"/>
<rect width="1.33333" height="1.41667" transform="translate(22.6667 24.0833)" fill="#FEDF67"/>
<rect width="1.33333" height="1.41667" transform="translate(22.6667 25.5)" fill="#FEDF67"/>
<rect width="1.33333" height="1.41667" transform="translate(22.6667 26.9167)" fill="#FEDF67"/>
<rect width="1.33333" height="1.41667" transform="translate(22.6667 28.3333)" fill="#FEDF67"/>
<rect width="1.33333" height="1.41667" transform="translate(22.6667 29.75)" fill="black"/>
<rect width="1.33333" height="1.41667" transform="translate(24 14.1667)" fill="black"/>
<rect width="1.33333" height="1.41667" transform="translate(24 15.5833)" fill="#F0DFC4"/>
<rect width="1.33333" height="1.41667" transform="translate(24 17)" fill="#C8A072"/>
<rect width="1.33333" height="1.41667" transform="translate(24 18.4167)" fill="#C8A072"/>
<rect width="1.33333" height="1.41667" transform="translate(24 19.8333)" fill="black"/>
<rect width="1.33333" height="1.41667" transform="translate(24 22.6667)" fill="black"/>
<rect width="1.33333" height="1.41667" transform="translate(24 24.0833)" fill="#D49725"/>
<rect width="1.33333" height="1.41667" transform="translate(24 25.5)" fill="#FEDF67"/>
<rect width="1.33333" height="1.41667" transform="translate(24 26.9167)" fill="#FEDF67"/>
<rect width="1.33333" height="1.41667" transform="translate(24 28.3333)" fill="black"/>
<rect width="1.33333" height="1.41667" transform="translate(25.3333 15.5833)" fill="black"/>
<rect width="1.33333" height="1.41667" transform="translate(25.3333 17)" fill="black"/>
<rect width="1.33333" height="1.41667" transform="translate(25.3333 18.4167)" fill="#C8A072"/>
<rect width="1.33333" height="1.41667" transform="translate(25.3333 19.8333)" fill="#C8A072"/>
<rect width="1.33333" height="1.41667" transform="translate(25.3333 21.25)" fill="black"/>
<rect width="1.33333" height="1.41667" transform="translate(25.3333 24.0833)" fill="black"/>
<rect width="1.33333" height="1.41667" transform="translate(25.3333 25.5)" fill="#FEDF67"/>
<rect width="1.33333" height="1.41667" transform="translate(25.3333 26.9167)" fill="#D49725"/>
<rect width="1.33333" height="1.41667" transform="translate(25.3333 28.3333)" fill="black"/>
<rect width="1.33333" height="1.41667" transform="translate(26.6667 18.4167)" fill="black"/>
<rect width="1.33333" height="1.41667" transform="translate(26.6667 19.8333)" fill="black"/>
<rect width="1.33333" height="1.41667" transform="translate(26.6667 24.0833)" fill="black"/>
<rect width="1.33333" height="1.41667" transform="translate(26.6667 25.5)" fill="#D49725"/>
<rect width="1.33333" height="1.41667" transform="translate(26.6667 26.9167)" fill="black"/>
<rect width="1.33333" height="1.41667" transform="translate(28 25.5)" fill="black"/>
</g>
<defs>
<clipPath id="clip0_6_2883">
<rect width="32" height="34" fill="white"/>
</clipPath>
</defs>
</svg>
