<svg width="41" height="23" viewBox="0 0 41 23" fill="none" xmlns="http://www.w3.org/2000/svg">
<path d="M30.75 15.3333H33.3125V17.8889H30.75V15.3333Z" fill="white"/>
<path d="M30.75 12.7778H33.3125V15.3333H30.75V12.7778Z" fill="white"/>
<path d="M33.3125 12.7778H35.875V15.3333H33.3125V12.7778Z" fill="white"/>
<path d="M35.875 12.7778H38.4375V15.3333H35.875V12.7778Z" fill="white"/>
<path d="M35.875 15.3333H38.4375V17.8889H35.875V15.3333Z" fill="white"/>
<path d="M33.3125 15.3333H35.875V17.8889H33.3125V15.3333Z" fill="white"/>
<path d="M28.1875 15.3333H30.75V17.8889H28.1875V15.3333Z" fill="white"/>
<path d="M23.0625 15.3333H25.625V17.8889H23.0625V15.3333Z" fill="white"/>
<path d="M17.9375 15.3333H20.5V17.8889H17.9375V15.3333Z" fill="white"/>
<path d="M12.8125 15.3333H15.375V17.8889H12.8125V15.3333Z" fill="white"/>
<path d="M7.6875 15.3333H10.25V17.8889H7.6875V15.3333Z" fill="white"/>
<path d="M10.25 15.3333H12.8125V17.8889H10.25V15.3333Z" fill="white"/>
<path d="M15.375 15.3333H17.9375V17.8889H15.375V15.3333Z" fill="white"/>
<path d="M20.5 15.3333H23.0625V17.8889H20.5V15.3333Z" fill="white"/>
<path d="M28.1875 17.8889H30.75V20.4444H28.1875V17.8889Z" fill="white"/>
<path d="M25.625 17.8889H28.1875V20.4444H25.625V17.8889Z" fill="white"/>
<path d="M23.0625 17.8889H25.625V20.4444H23.0625V17.8889Z" fill="white"/>
<path d="M20.5 17.8889H23.0625V20.4444H20.5V17.8889Z" fill="white"/>
<path d="M17.9375 17.8889H20.5V20.4444H17.9375V17.8889Z" fill="white"/>
<path d="M15.375 17.8889H17.9375V20.4444H15.375V17.8889Z" fill="white"/>
<path d="M12.8125 17.8889H15.375V20.4444H12.8125V17.8889Z" fill="white"/>
<path d="M10.25 17.8889H12.8125V20.4444H10.25V17.8889Z" fill="white"/>
<path d="M2.5625 12.7778H5.125V15.3333H2.5625V12.7778Z" fill="white"/>
<path d="M5.125 12.7778H7.6875V15.3333H5.125V12.7778Z" fill="white"/>
<path d="M7.6875 12.7778H10.25V15.3333H7.6875V12.7778Z" fill="white"/>
<path d="M12.8125 12.7778H15.375V15.3333H12.8125V12.7778Z" fill="white"/>
<path d="M15.375 12.7778H17.9375V15.3333H15.375V12.7778Z" fill="white"/>
<path d="M17.9375 12.7778H20.5V15.3333H17.9375V12.7778Z" fill="white"/>
<path d="M20.5 12.7778H23.0625V15.3333H20.5V12.7778Z" fill="white"/>
<path d="M23.0625 12.7778H25.625V15.3333H23.0625V12.7778Z" fill="white"/>
<path d="M25.625 12.7778H28.1875V15.3333H25.625V12.7778Z" fill="white"/>
<path d="M28.1875 10.2222H30.75V12.7778H28.1875V10.2222Z" fill="white"/>
<path d="M25.625 10.2222H28.1875V12.7778H25.625V10.2222Z" fill="white"/>
<path d="M23.0625 10.2222H25.625V12.7778H23.0625V10.2222Z" fill="white"/>
<path d="M20.5 10.2222H23.0625V12.7778H20.5V10.2222Z" fill="white"/>
<path d="M17.9375 10.2222H20.5V12.7778H17.9375V10.2222Z" fill="white"/>
<path d="M15.375 10.2222H17.9375V12.7778H15.375V10.2222Z" fill="white"/>
<path d="M10.25 10.2222H12.8125V12.7778H10.25V10.2222Z" fill="white"/>
<path d="M7.6875 10.2222H10.25V12.7778H7.6875V10.2222Z" fill="white"/>
<path d="M5.125 10.2222H7.6875V12.7778H5.125V10.2222Z" fill="white"/>
<path d="M10.25 7.66667H12.8125V10.2222H10.25V7.66667Z" fill="white"/>
<path d="M12.8125 7.66667H15.375V10.2222H12.8125V7.66667Z" fill="white"/>
<path d="M15.375 7.66667H17.9375V10.2222H15.375V7.66667Z" fill="white"/>
<path d="M17.9375 7.66667H20.5V10.2222H17.9375V7.66667Z" fill="white"/>
<path d="M20.5 7.66667H23.0625V10.2222H20.5V7.66667Z" fill="white"/>
<path d="M23.0625 7.66667H25.625V10.2222H23.0625V7.66667Z" fill="white"/>
<path d="M25.625 7.66667H28.1875V10.2222H25.625V7.66667Z" fill="white"/>
<path d="M28.1875 7.66667H30.75V10.2222H28.1875V7.66667Z" fill="white"/>
<path d="M23.0625 5.11111H25.625V7.66667H23.0625V5.11111Z" fill="white"/>
<path d="M20.5 5.11111H23.0625V7.66667H20.5V5.11111Z" fill="white"/>
<path d="M17.9375 5.11111H20.5V7.66667H17.9375V5.11111Z" fill="white"/>
<path d="M15.375 5.11111H17.9375V7.66667H15.375V5.11111Z" fill="white"/>
<path d="M20.5 2.55556H23.0625V5.11111H20.5V2.55556Z" fill="white"/>
<path d="M10.25 20.4444H7.6875V23H10.25V20.4444Z" fill="#3080CB"/>
<path d="M12.8125 20.4444H10.25V23H12.8125V20.4444Z" fill="#3080CB"/>
<path d="M15.375 20.4444H12.8125V23H15.375V20.4444Z" fill="#3080CB"/>
<path d="M17.9375 20.4444H15.375V23H17.9375V20.4444Z" fill="#3080CB"/>
<path d="M20.5 23V20.4444H17.9375V23H20.5Z" fill="#3080CB"/>
<path d="M23.0625 20.4444H20.5V23H23.0625V20.4444Z" fill="#3080CB"/>
<path d="M23.0625 20.4444V23H25.625V20.4444H23.0625Z" fill="#3080CB"/>
<path d="M25.625 20.4444V23H28.1875V20.4444H25.625Z" fill="#3080CB"/>
<path d="M28.1875 20.4444V23H30.75V20.4444H28.1875Z" fill="#3080CB"/>
<path d="M30.75 20.4444V23H33.3125V20.4444H30.75Z" fill="#3080CB"/>
<path d="M33.3125 20.4444V23H35.875V20.4444H33.3125Z" fill="#3080CB"/>
<path d="M38.4375 17.8889H35.875V20.4444H38.4375V17.8889Z" fill="#3080CB"/>
<path d="M38.4375 15.3333V17.8889H41V15.3333H38.4375Z" fill="#3080CB"/>
<path d="M38.4375 12.7778V15.3333H41V12.7778H38.4375Z" fill="#3080CB"/>
<path d="M35.875 12.7778H38.4375V10.2222H35.875V12.7778Z" fill="#3080CB"/>
<path d="M33.3125 12.7778H35.875V10.2222H33.3125V12.7778Z" fill="#3080CB"/>
<path d="M30.75 7.66667V10.2222H33.3125V7.66667H30.75Z" fill="#3080CB"/>
<path d="M28.1875 7.66667H30.75V5.11111H28.1875V7.66667Z" fill="#3080CB"/>
<path d="M28.1875 2.55556H25.625V5.11111H28.1875V2.55556Z" fill="#3080CB"/>
<path d="M25.625 0H23.0625V2.55556H25.625V0Z" fill="#3080CB"/>
<path d="M20.5 2.55556H23.0625V0H20.5V2.55556Z" fill="#3080CB"/>
<path d="M20.5 2.55556V0H17.9375V2.55556H20.5Z" fill="#3080CB"/>
<path d="M15.375 5.11111H17.9375V2.55556H15.375V5.11111Z" fill="#3080CB"/>
<path d="M12.8125 7.66667H15.375V5.11111H12.8125V7.66667Z" fill="#3080CB"/>
<path d="M10.25 7.66667H12.8125V5.11111H10.25V7.66667Z" fill="#3080CB"/>
<path d="M7.6875 10.2222H10.25V7.66667H7.6875V10.2222Z" fill="#3080CB"/>
<path d="M5.125 10.2222H7.6875V7.66667H5.125V10.2222Z" fill="#3080CB"/>
<path d="M2.5625 12.7778H5.125V10.2222H2.5625V12.7778Z" fill="#3080CB"/>
<path d="M2.5625 15.3333V12.7778H0V15.3333H2.5625Z" fill="#3080CB"/>
<path d="M2.5625 15.3333H0V17.8889H2.5625V15.3333Z" fill="#3080CB"/>
<path d="M5.125 20.4444V17.8889H2.5625V20.4444H5.125Z" fill="#3080CB"/>
<path d="M7.6875 20.4444V17.8889H5.125V20.4444H7.6875Z" fill="#3080CB"/>
<path d="M33.3125 17.8889V20.4444H35.875V17.8889H33.3125Z" fill="#A5D4FF"/>
<path d="M28.1875 17.8889V15.3333H25.625V17.8889H28.1875Z" fill="#A5D4FF"/>
<path d="M30.75 15.3333V12.7778H28.1875V15.3333H30.75Z" fill="#A5D4FF"/>
<path d="M30.75 12.7778H33.3125V10.2222H30.75V12.7778Z" fill="#A5D4FF"/>
<path d="M25.625 7.66667H28.1875V5.11111H25.625V7.66667Z" fill="#A5D4FF"/>
<path d="M23.0625 5.11111H25.625V2.55556H23.0625V5.11111Z" fill="#A5D4FF"/>
<path d="M17.9375 5.11111H20.5V2.55556H17.9375V5.11111Z" fill="#A5D4FF"/>
<path d="M12.8125 12.7778H15.375V10.2222H12.8125V12.7778Z" fill="#A5D4FF"/>
<path d="M10.25 15.3333H12.8125V12.7778H10.25V15.3333Z" fill="#A5D4FF"/>
<path d="M10.25 17.8889H7.6875V20.4444H10.25V17.8889Z" fill="#A5D4FF"/>
<path d="M7.6875 17.8889V15.3333H5.125V17.8889H7.6875Z" fill="#A5D4FF"/>
<path d="M5.125 15.3333H2.5625V17.8889H5.125V15.3333Z" fill="#A5D4FF"/>
<path d="M30.75 20.4444H33.3125V17.8889H30.75V20.4444Z" fill="white"/>
</svg>
