<svg width="30" height="35" viewBox="0 0 30 35" fill="none" xmlns="http://www.w3.org/2000/svg">
<g clip-path="url(#clip0_3_5256)">
<rect width="1.25" height="1.45833" transform="translate(0 11.6667)" fill="black"/>
<rect width="1.25" height="1.45833" transform="translate(0 13.125)" fill="black"/>
<rect width="1.25" height="1.45833" transform="translate(0 14.5833)" fill="black"/>
<rect width="1.25" height="1.45833" transform="translate(0 16.0417)" fill="black"/>
<rect width="1.25" height="1.45833" transform="translate(0 17.5)" fill="black"/>
<rect width="1.25" height="1.45833" transform="translate(1.25 8.75)" fill="black"/>
<rect width="1.25" height="1.45833" transform="translate(1.25 10.2083)" fill="black"/>
<rect width="1.25" height="1.45833" transform="translate(1.25 11.6667)" fill="#B4D69C"/>
<rect width="1.25" height="1.45833" transform="translate(1.25 13.125)" fill="#557B2F"/>
<rect width="1.25" height="1.45833" transform="translate(1.25 14.5833)" fill="#557B2F"/>
<rect width="1.25" height="1.45833" transform="translate(1.25 16.0417)" fill="#557B2F"/>
<rect width="1.25" height="1.45833" transform="translate(1.25 17.5)" fill="#557B2F"/>
<rect width="1.25" height="1.45833" transform="translate(1.25 18.9583)" fill="black"/>
<rect width="1.25" height="1.45833" transform="translate(1.25 20.4167)" fill="black"/>
<rect width="1.25" height="1.45833" transform="translate(1.25 21.875)" fill="black"/>
<rect width="1.25" height="1.45833" transform="translate(2.5 7.29166)" fill="black"/>
<rect width="1.25" height="1.45833" transform="translate(2.5 8.75)" fill="#B4D69C"/>
<rect width="1.25" height="1.45833" transform="translate(2.5 10.2083)" fill="#557B2F"/>
<rect width="1.25" height="1.45833" transform="translate(2.5 11.6667)" fill="#557B2F"/>
<rect width="1.25" height="1.45833" transform="translate(2.5 13.125)" fill="#557B2F"/>
<rect width="1.25" height="1.45833" transform="translate(2.5 14.5833)" fill="#557B2F"/>
<rect width="1.25" height="1.45833" transform="translate(2.5 16.0417)" fill="#557B2F"/>
<rect width="1.25" height="1.45833" transform="translate(2.5 17.5)" fill="#557B2F"/>
<rect width="1.25" height="1.45833" transform="translate(2.5 18.9583)" fill="#385713"/>
<rect width="1.25" height="1.45833" transform="translate(2.5 20.4167)" fill="#385713"/>
<rect width="1.25" height="1.45833" transform="translate(2.5 21.875)" fill="#385713"/>
<rect width="1.25" height="1.45833" transform="translate(2.5 23.3333)" fill="black"/>
<rect width="1.25" height="1.45833" transform="translate(3.75 5.83334)" fill="black"/>
<rect width="1.25" height="1.45833" transform="translate(3.75 7.29166)" fill="#557B2F"/>
<rect width="1.25" height="1.45833" transform="translate(3.75 8.75)" fill="#557B2F"/>
<rect width="1.25" height="1.45833" transform="translate(3.75 10.2083)" fill="#557B2F"/>
<rect width="1.25" height="1.45833" transform="translate(3.75 11.6667)" fill="#557B2F"/>
<rect width="1.25" height="1.45833" transform="translate(3.75 13.125)" fill="#557B2F"/>
<rect width="1.25" height="1.45833" transform="translate(3.75 14.5833)" fill="#B4D69C"/>
<rect width="1.25" height="1.45833" transform="translate(3.75 16.0417)" fill="#B4D69C"/>
<rect width="1.25" height="1.45833" transform="translate(3.75 17.5)" fill="#557B2F"/>
<rect width="1.25" height="1.45833" transform="translate(3.75 18.9583)" fill="#557B2F"/>
<rect width="1.25" height="1.45833" transform="translate(3.75 20.4167)" fill="#557B2F"/>
<rect width="1.25" height="1.45833" transform="translate(3.75 21.875)" fill="black"/>
<rect width="1.25" height="1.45833" transform="translate(5 2.91666)" fill="black"/>
<rect width="1.25" height="1.45833" transform="translate(5 5.83334)" fill="black"/>
<rect width="1.25" height="1.45833" transform="translate(5 7.29166)" fill="#557B2F"/>
<rect width="1.25" height="1.45833" transform="translate(5 8.75)" fill="#557B2F"/>
<rect width="1.25" height="1.45833" transform="translate(5 10.2083)" fill="#B4D69C"/>
<rect width="1.25" height="1.45833" transform="translate(5 11.6667)" fill="#B4D69C"/>
<rect width="1.25" height="1.45833" transform="translate(5 13.125)" fill="#B4D69C"/>
<rect width="1.25" height="1.45833" transform="translate(5 14.5833)" fill="#B4D69C"/>
<rect width="1.25" height="1.45833" transform="translate(5 16.0417)" fill="#557B2F"/>
<rect width="1.25" height="1.45833" transform="translate(5 17.5)" fill="#385713"/>
<rect width="1.25" height="1.45833" transform="translate(5 18.9583)" fill="#557B2F"/>
<rect width="1.25" height="1.45833" transform="translate(5 20.4167)" fill="black"/>
<rect width="1.25" height="1.45833" transform="translate(5 21.875)" fill="black"/>
<rect width="1.25" height="1.45833" transform="translate(6.25 1.45834)" fill="black"/>
<rect width="1.25" height="1.45833" transform="translate(6.25 2.91666)" fill="#5C4A39"/>
<rect width="1.25" height="1.45833" transform="translate(6.25 4.375)" fill="black"/>
<rect width="1.25" height="1.45833" transform="translate(6.25 5.83334)" fill="#557B2F"/>
<rect width="1.25" height="1.45833" transform="translate(6.25 7.29166)" fill="#B4D69C"/>
<rect width="1.25" height="1.45833" transform="translate(6.25 8.75)" fill="#B4D69C"/>
<rect width="1.25" height="1.45833" transform="translate(6.25 10.2083)" fill="#B4D69C"/>
<rect width="1.25" height="1.45833" transform="translate(6.25 11.6667)" fill="#B4D69C"/>
<rect width="1.25" height="1.45833" transform="translate(6.25 13.125)" fill="#B4D69C"/>
<rect width="1.25" height="1.45833" transform="translate(6.25 14.5833)" fill="#385713"/>
<rect width="1.25" height="1.45833" transform="translate(6.25 16.0417)" fill="#385713"/>
<rect width="1.25" height="1.45833" transform="translate(6.25 17.5)" fill="#385713"/>
<rect width="1.25" height="1.45833" transform="translate(6.25 18.9583)" fill="#D29945"/>
<rect width="1.25" height="1.45833" transform="translate(6.25 20.4167)" fill="#D29945"/>
<rect width="1.25" height="1.45833" transform="translate(6.25 21.875)" fill="#F5CD45"/>
<rect width="1.25" height="1.45833" transform="translate(6.25 23.3333)" fill="black"/>
<rect width="1.25" height="1.45833" transform="translate(7.5 2.91666)" fill="black"/>
<rect width="1.25" height="1.45833" transform="translate(7.5 4.375)" fill="#5C4A39"/>
<rect width="1.25" height="1.45833" transform="translate(7.5 5.83334)" fill="#D29945"/>
<rect width="1.25" height="1.45833" transform="translate(7.5 7.29166)" fill="#D29945"/>
<rect width="1.25" height="1.45833" transform="translate(7.5 8.75)" fill="#B4D69C"/>
<rect width="1.25" height="1.45833" transform="translate(7.5 10.2083)" fill="#B4D69C"/>
<rect width="1.25" height="1.45833" transform="translate(7.5 11.6667)" fill="#B4D69C"/>
<rect width="1.25" height="1.45833" transform="translate(7.5 13.125)" fill="#D29945"/>
<rect width="1.25" height="1.45833" transform="translate(7.5 14.5833)" fill="#D29945"/>
<rect width="1.25" height="1.45833" transform="translate(7.5 16.0417)" fill="#D29945"/>
<rect width="1.25" height="1.45833" transform="translate(7.5 17.5)" fill="#D29945"/>
<rect width="1.25" height="1.45833" transform="translate(7.5 18.9583)" fill="#D29945"/>
<rect width="1.25" height="1.45833" transform="translate(7.5 20.4167)" fill="#D29945"/>
<rect width="1.25" height="1.45833" transform="translate(7.5 21.875)" fill="#D29945"/>
<rect width="1.25" height="1.45833" transform="translate(7.5 23.3333)" fill="#F5CD45"/>
<rect width="1.25" height="1.45833" transform="translate(7.5 24.7917)" fill="black"/>
<rect width="1.25" height="1.45833" transform="translate(8.75 2.91666)" fill="black"/>
<rect width="1.25" height="1.45833" transform="translate(8.75 4.375)" fill="#B4D69C"/>
<rect width="1.25" height="1.45833" transform="translate(8.75 5.83334)" fill="#F5CD45"/>
<rect width="1.25" height="1.45833" transform="translate(8.75 7.29166)" fill="#F5CD45"/>
<rect width="1.25" height="1.45833" transform="translate(8.75 8.75)" fill="#D29945"/>
<rect width="1.25" height="1.45833" transform="translate(8.75 10.2083)" fill="#D29945"/>
<rect width="1.25" height="1.45833" transform="translate(8.75 11.6667)" fill="#D29945"/>
<rect width="1.25" height="1.45833" transform="translate(8.75 13.125)" fill="#F5CD45"/>
<rect width="1.25" height="1.45833" transform="translate(8.75 14.5833)" fill="#F5CD45"/>
<rect width="1.25" height="1.45833" transform="translate(8.75 16.0417)" fill="#F5CD45"/>
<rect width="1.25" height="1.45833" transform="translate(8.75 17.5)" fill="#D29945"/>
<rect width="1.25" height="1.45833" transform="translate(8.75 18.9583)" fill="#D29945"/>
<rect width="1.25" height="1.45833" transform="translate(8.75 20.4167)" fill="#D29945"/>
<rect width="1.25" height="1.45833" transform="translate(8.75 21.875)" fill="#D29945"/>
<rect width="1.25" height="1.45833" transform="translate(8.75 23.3333)" fill="#D29945"/>
<rect width="1.25" height="1.45833" transform="translate(8.75 24.7917)" fill="#F5CD45"/>
<rect width="1.25" height="1.45833" transform="translate(8.75 26.25)" fill="black"/>
<rect width="1.25" height="1.45833" transform="translate(10 1.45834)" fill="black"/>
<rect width="1.25" height="1.45833" transform="translate(10 2.91666)" fill="#B4D69C"/>
<rect width="1.25" height="1.45833" transform="translate(10 4.375)" fill="#557B2F"/>
<rect width="1.25" height="1.45833" transform="translate(10 5.83334)" fill="#F5CD45"/>
<rect width="1.25" height="1.45833" transform="translate(10 7.29166)" fill="#F5CD45"/>
<rect width="1.25" height="1.45833" transform="translate(10 8.75)" fill="#FCEE87"/>
<rect width="1.25" height="1.45833" transform="translate(10 10.2083)" fill="#FCEE87"/>
<rect width="1.25" height="1.45833" transform="translate(10 11.6667)" fill="#F5CD45"/>
<rect width="1.25" height="1.45833" transform="translate(10 13.125)" fill="#F5CD45"/>
<rect width="1.25" height="1.45833" transform="translate(10 14.5833)" fill="#F5CD45"/>
<rect width="1.25" height="1.45833" transform="translate(10 16.0417)" fill="#F5CD45"/>
<rect width="1.25" height="1.45833" transform="translate(10 17.5)" fill="#F5CD45"/>
<rect width="1.25" height="1.45833" transform="translate(10 18.9583)" fill="#F5CD45"/>
<rect width="1.25" height="1.45833" transform="translate(10 20.4167)" fill="#D29945"/>
<rect width="1.25" height="1.45833" transform="translate(10 21.875)" fill="#D29945"/>
<rect width="1.25" height="1.45833" transform="translate(10 23.3333)" fill="#D29945"/>
<rect width="1.25" height="1.45833" transform="translate(10 24.7917)" fill="#D29945"/>
<rect width="1.25" height="1.45833" transform="translate(10 26.25)" fill="#F5CD45"/>
<rect width="1.25" height="1.45833" transform="translate(10 27.7083)" fill="black"/>
<rect width="1.25" height="1.45833" transform="translate(11.25)" fill="black"/>
<rect width="1.25" height="1.45833" transform="translate(11.25 1.45834)" fill="#557B2F"/>
<rect width="1.25" height="1.45833" transform="translate(11.25 2.91666)" fill="#557B2F"/>
<rect width="1.25" height="1.45833" transform="translate(11.25 4.375)" fill="#557B2F"/>
<rect width="1.25" height="1.45833" transform="translate(11.25 5.83334)" fill="#F5CD45"/>
<rect width="1.25" height="1.45833" transform="translate(11.25 7.29166)" fill="#F5CD45"/>
<rect width="1.25" height="1.45833" transform="translate(11.25 8.75)" fill="#FCEE87"/>
<rect width="1.25" height="1.45833" transform="translate(11.25 10.2083)" fill="#FCEE87"/>
<rect width="1.25" height="1.45833" transform="translate(11.25 11.6667)" fill="#FCEE87"/>
<rect width="1.25" height="1.45833" transform="translate(11.25 13.125)" fill="#FCEE87"/>
<rect width="1.25" height="1.45833" transform="translate(11.25 14.5833)" fill="#F5CD45"/>
<rect width="1.25" height="1.45833" transform="translate(11.25 16.0417)" fill="#F5CD45"/>
<rect width="1.25" height="1.45833" transform="translate(11.25 17.5)" fill="#F5CD45"/>
<rect width="1.25" height="1.45833" transform="translate(11.25 18.9583)" fill="#F5CD45"/>
<rect width="1.25" height="1.45833" transform="translate(11.25 20.4167)" fill="#F5CD45"/>
<rect width="1.25" height="1.45833" transform="translate(11.25 21.875)" fill="#D29945"/>
<rect width="1.25" height="1.45833" transform="translate(11.25 23.3333)" fill="#D29945"/>
<rect width="1.25" height="1.45833" transform="translate(11.25 24.7917)" fill="#D29945"/>
<rect width="1.25" height="1.45833" transform="translate(11.25 26.25)" fill="#F5CD45"/>
<rect width="1.25" height="1.45833" transform="translate(11.25 27.7083)" fill="black"/>
<rect width="1.25" height="1.45833" transform="translate(12.5)" fill="black"/>
<rect width="1.25" height="1.45833" transform="translate(12.5 1.45834)" fill="#385713"/>
<rect width="1.25" height="1.45833" transform="translate(12.5 2.91666)" fill="#385713"/>
<rect width="1.25" height="1.45833" transform="translate(12.5 4.375)" fill="#557B2F"/>
<rect width="1.25" height="1.45833" transform="translate(12.5 5.83334)" fill="#F5CD45"/>
<rect width="1.25" height="1.45833" transform="translate(12.5 7.29166)" fill="#F5CD45"/>
<rect width="1.25" height="1.45833" transform="translate(12.5 8.75)" fill="#FCEE87"/>
<rect width="1.25" height="1.45833" transform="translate(12.5 10.2083)" fill="#FCEE87"/>
<rect width="1.25" height="1.45833" transform="translate(12.5 11.6667)" fill="#FCEE87"/>
<rect width="1.25" height="1.45833" transform="translate(12.5 13.125)" fill="#FCEE87"/>
<rect width="1.25" height="1.45833" transform="translate(12.5 14.5833)" fill="#FCEE87"/>
<rect width="1.25" height="1.45833" transform="translate(12.5 16.0417)" fill="#F5CD45"/>
<rect width="1.25" height="1.45833" transform="translate(12.5 17.5)" fill="#F5CD45"/>
<rect width="1.25" height="1.45833" transform="translate(12.5 18.9583)" fill="#F5CD45"/>
<rect width="1.25" height="1.45833" transform="translate(12.5 20.4167)" fill="#F5CD45"/>
<rect width="1.25" height="1.45833" transform="translate(12.5 21.875)" fill="#F5CD45"/>
<rect width="1.25" height="1.45833" transform="translate(12.5 23.3333)" fill="#D29945"/>
<rect width="1.25" height="1.45833" transform="translate(12.5 24.7917)" fill="#D29945"/>
<rect width="1.25" height="1.45833" transform="translate(12.5 26.25)" fill="#D29945"/>
<rect width="1.25" height="1.45833" transform="translate(12.5 27.7083)" fill="#F5CD45"/>
<rect width="1.25" height="1.45833" transform="translate(12.5 29.1667)" fill="black"/>
<rect width="1.25" height="1.45833" transform="translate(13.75)" fill="black"/>
<rect width="1.25" height="1.45833" transform="translate(13.75 1.45834)" fill="#385713"/>
<rect width="1.25" height="1.45833" transform="translate(13.75 2.91666)" fill="#385713"/>
<rect width="1.25" height="1.45833" transform="translate(13.75 4.375)" fill="#557B2F"/>
<rect width="1.25" height="1.45833" transform="translate(13.75 5.83334)" fill="#D29945"/>
<rect width="1.25" height="1.45833" transform="translate(13.75 7.29166)" fill="#F5CD45"/>
<rect width="1.25" height="1.45833" transform="translate(13.75 8.75)" fill="#FCEE87"/>
<rect width="1.25" height="1.45833" transform="translate(13.75 10.2083)" fill="#FCEE87"/>
<rect width="1.25" height="1.45833" transform="translate(13.75 11.6667)" fill="#FCEE87"/>
<rect width="1.25" height="1.45833" transform="translate(13.75 13.125)" fill="#FCEE87"/>
<rect width="1.25" height="1.45833" transform="translate(13.75 14.5833)" fill="#FCEE87"/>
<rect width="1.25" height="1.45833" transform="translate(13.75 16.0417)" fill="#F5CD45"/>
<rect width="1.25" height="1.45833" transform="translate(13.75 17.5)" fill="#F5CD45"/>
<rect width="1.25" height="1.45833" transform="translate(13.75 18.9583)" fill="#F5CD45"/>
<rect width="1.25" height="1.45833" transform="translate(13.75 20.4167)" fill="#F5CD45"/>
<rect width="1.25" height="1.45833" transform="translate(13.75 21.875)" fill="#F5CD45"/>
<rect width="1.25" height="1.45833" transform="translate(13.75 23.3333)" fill="#F5CD45"/>
<rect width="1.25" height="1.45833" transform="translate(13.75 24.7917)" fill="#D29945"/>
<rect width="1.25" height="1.45833" transform="translate(13.75 26.25)" fill="#D29945"/>
<rect width="1.25" height="1.45833" transform="translate(13.75 27.7083)" fill="#F5CD45"/>
<rect width="1.25" height="1.45833" transform="translate(13.75 29.1667)" fill="black"/>
<rect width="1.25" height="1.45833" transform="translate(15 1.45834)" fill="black"/>
<rect width="1.25" height="1.45833" transform="translate(15 2.91666)" fill="#385713"/>
<rect width="1.25" height="1.45833" transform="translate(15 4.375)" fill="#557B2F"/>
<rect width="1.25" height="1.45833" transform="translate(15 5.83334)" fill="#D29945"/>
<rect width="1.25" height="1.45833" transform="translate(15 7.29166)" fill="#F5CD45"/>
<rect width="1.25" height="1.45833" transform="translate(15 8.75)" fill="#FCEE87"/>
<rect width="1.25" height="1.45833" transform="translate(15 10.2083)" fill="#FCEE87"/>
<rect width="1.25" height="1.45833" transform="translate(15 11.6667)" fill="#FCEE87"/>
<rect width="1.25" height="1.45833" transform="translate(15 13.125)" fill="#FCEE87"/>
<rect width="1.25" height="1.45833" transform="translate(15 14.5833)" fill="#FCEE87"/>
<rect width="1.25" height="1.45833" transform="translate(15 16.0417)" fill="#FCEE87"/>
<rect width="1.25" height="1.45833" transform="translate(15 17.5)" fill="#F5CD45"/>
<rect width="1.25" height="1.45833" transform="translate(15 18.9583)" fill="#F5CD45"/>
<rect width="1.25" height="1.45833" transform="translate(15 20.4167)" fill="#F5CD45"/>
<rect width="1.25" height="1.45833" transform="translate(15 21.875)" fill="#F5CD45"/>
<rect width="1.25" height="1.45833" transform="translate(15 23.3333)" fill="#F5CD45"/>
<rect width="1.25" height="1.45833" transform="translate(15 24.7917)" fill="#D29945"/>
<rect width="1.25" height="1.45833" transform="translate(15 26.25)" fill="#D29945"/>
<rect width="1.25" height="1.45833" transform="translate(15 27.7083)" fill="#D29945"/>
<rect width="1.25" height="1.45833" transform="translate(15 29.1667)" fill="#F5CD45"/>
<rect width="1.25" height="1.45833" transform="translate(15 30.625)" fill="black"/>
<rect width="1.25" height="1.45833" transform="translate(16.25 1.45834)" fill="black"/>
<rect width="1.25" height="1.45833" transform="translate(16.25 2.91666)" fill="#385713"/>
<rect width="1.25" height="1.45833" transform="translate(16.25 4.375)" fill="#557B2F"/>
<rect width="1.25" height="1.45833" transform="translate(16.25 5.83334)" fill="#D29945"/>
<rect width="1.25" height="1.45833" transform="translate(16.25 7.29166)" fill="#F5CD45"/>
<rect width="1.25" height="1.45833" transform="translate(16.25 8.75)" fill="#FCEE87"/>
<rect width="1.25" height="1.45833" transform="translate(16.25 10.2083)" fill="#FCEE87"/>
<rect width="1.25" height="1.45833" transform="translate(16.25 11.6667)" fill="#FCEE87"/>
<rect width="1.25" height="1.45833" transform="translate(16.25 13.125)" fill="#FCEE87"/>
<rect width="1.25" height="1.45833" transform="translate(16.25 14.5833)" fill="#FCEE87"/>
<rect width="1.25" height="1.45833" transform="translate(16.25 16.0417)" fill="#FCEE87"/>
<rect width="1.25" height="1.45833" transform="translate(16.25 17.5)" fill="#FCEE87"/>
<rect width="1.25" height="1.45833" transform="translate(16.25 18.9583)" fill="#F5CD45"/>
<rect width="1.25" height="1.45833" transform="translate(16.25 20.4167)" fill="#F5CD45"/>
<rect width="1.25" height="1.45833" transform="translate(16.25 21.875)" fill="#F5CD45"/>
<rect width="1.25" height="1.45833" transform="translate(16.25 23.3333)" fill="#F5CD45"/>
<rect width="1.25" height="1.45833" transform="translate(16.25 24.7917)" fill="#F5CD45"/>
<rect width="1.25" height="1.45833" transform="translate(16.25 26.25)" fill="#D29945"/>
<rect width="1.25" height="1.45833" transform="translate(16.25 27.7083)" fill="#D29945"/>
<rect width="1.25" height="1.45833" transform="translate(16.25 29.1667)" fill="#D29945"/>
<rect width="1.25" height="1.45833" transform="translate(16.25 30.625)" fill="black"/>
<rect width="1.25" height="1.45833" transform="translate(17.5 1.45834)" fill="black"/>
<rect width="1.25" height="1.45833" transform="translate(17.5 2.91666)" fill="#557B2F"/>
<rect width="1.25" height="1.45833" transform="translate(17.5 4.375)" fill="black"/>
<rect width="1.25" height="1.45833" transform="translate(17.5 5.83334)" fill="#D29945"/>
<rect width="1.25" height="1.45833" transform="translate(17.5 7.29166)" fill="#F5CD45"/>
<rect width="1.25" height="1.45833" transform="translate(17.5 8.75)" fill="#FCEE87"/>
<rect width="1.25" height="1.45833" transform="translate(17.5 10.2083)" fill="#FCEE87"/>
<rect width="1.25" height="1.45833" transform="translate(17.5 11.6667)" fill="#FCEE87"/>
<rect width="1.25" height="1.45833" transform="translate(17.5 13.125)" fill="#FCEE87"/>
<rect width="1.25" height="1.45833" transform="translate(17.5 14.5833)" fill="#FCEE87"/>
<rect width="1.25" height="1.45833" transform="translate(17.5 16.0417)" fill="#FCEE87"/>
<rect width="1.25" height="1.45833" transform="translate(17.5 17.5)" fill="#FCEE87"/>
<rect width="1.25" height="1.45833" transform="translate(17.5 18.9583)" fill="#F5CD45"/>
<rect width="1.25" height="1.45833" transform="translate(17.5 20.4167)" fill="#F5CD45"/>
<rect width="1.25" height="1.45833" transform="translate(17.5 21.875)" fill="#F5CD45"/>
<rect width="1.25" height="1.45833" transform="translate(17.5 23.3333)" fill="#F5CD45"/>
<rect width="1.25" height="1.45833" transform="translate(17.5 24.7917)" fill="#F5CD45"/>
<rect width="1.25" height="1.45833" transform="translate(17.5 26.25)" fill="#D29945"/>
<rect width="1.25" height="1.45833" transform="translate(17.5 27.7083)" fill="#D29945"/>
<rect width="1.25" height="1.45833" transform="translate(17.5 29.1667)" fill="#D29945"/>
<rect width="1.25" height="1.45833" transform="translate(17.5 30.625)" fill="black"/>
<rect width="1.25" height="1.45833" transform="translate(18.75 1.45834)" fill="black"/>
<rect width="1.25" height="1.45833" transform="translate(18.75 2.91666)" fill="black"/>
<rect width="1.25" height="1.45833" transform="translate(18.75 4.375)" fill="black"/>
<rect width="1.25" height="1.45833" transform="translate(18.75 5.83334)" fill="#D29945"/>
<rect width="1.25" height="1.45833" transform="translate(18.75 7.29166)" fill="#F5CD45"/>
<rect width="1.25" height="1.45833" transform="translate(18.75 8.75)" fill="#F5CD45"/>
<rect width="1.25" height="1.45833" transform="translate(18.75 10.2083)" fill="#FCEE87"/>
<rect width="1.25" height="1.45833" transform="translate(18.75 11.6667)" fill="#FCEE87"/>
<rect width="1.25" height="1.45833" transform="translate(18.75 13.125)" fill="#FCEE87"/>
<rect width="1.25" height="1.45833" transform="translate(18.75 14.5833)" fill="#FCEE87"/>
<rect width="1.25" height="1.45833" transform="translate(18.75 16.0417)" fill="#FCEE87"/>
<rect width="1.25" height="1.45833" transform="translate(18.75 17.5)" fill="#FCEE87"/>
<rect width="1.25" height="1.45833" transform="translate(18.75 18.9583)" fill="#FCEE87"/>
<rect width="1.25" height="1.45833" transform="translate(18.75 20.4167)" fill="#F5CD45"/>
<rect width="1.25" height="1.45833" transform="translate(18.75 21.875)" fill="#F5CD45"/>
<rect width="1.25" height="1.45833" transform="translate(18.75 23.3333)" fill="#F5CD45"/>
<rect width="1.25" height="1.45833" transform="translate(18.75 24.7917)" fill="#F5CD45"/>
<rect width="1.25" height="1.45833" transform="translate(18.75 26.25)" fill="#D29945"/>
<rect width="1.25" height="1.45833" transform="translate(18.75 27.7083)" fill="#D29945"/>
<rect width="1.25" height="1.45833" transform="translate(18.75 29.1667)" fill="#D29945"/>
<rect width="1.25" height="1.45833" transform="translate(18.75 30.625)" fill="black"/>
<rect width="1.25" height="1.45833" transform="translate(20 5.83334)" fill="black"/>
<rect width="1.25" height="1.45833" transform="translate(20 7.29166)" fill="#D29945"/>
<rect width="1.25" height="1.45833" transform="translate(20 8.75)" fill="#F5CD45"/>
<rect width="1.25" height="1.45833" transform="translate(20 10.2083)" fill="#F5CD45"/>
<rect width="1.25" height="1.45833" transform="translate(20 11.6667)" fill="#F5CD45"/>
<rect width="1.25" height="1.45833" transform="translate(20 13.125)" fill="#FCEE87"/>
<rect width="1.25" height="1.45833" transform="translate(20 14.5833)" fill="#FCEE87"/>
<rect width="1.25" height="1.45833" transform="translate(20 16.0417)" fill="#FCEE87"/>
<rect width="1.25" height="1.45833" transform="translate(20 17.5)" fill="#FCEE87"/>
<rect width="1.25" height="1.45833" transform="translate(20 18.9583)" fill="#F5CD45"/>
<rect width="1.25" height="1.45833" transform="translate(20 20.4167)" fill="#F5CD45"/>
<rect width="1.25" height="1.45833" transform="translate(20 21.875)" fill="#F5CD45"/>
<rect width="1.25" height="1.45833" transform="translate(20 23.3333)" fill="#F5CD45"/>
<rect width="1.25" height="1.45833" transform="translate(20 24.7917)" fill="#F5CD45"/>
<rect width="1.25" height="1.45833" transform="translate(20 26.25)" fill="#D29945"/>
<rect width="1.25" height="1.45833" transform="translate(20 27.7083)" fill="#D29945"/>
<rect width="1.25" height="1.45833" transform="translate(20 29.1667)" fill="black"/>
<rect width="1.25" height="1.45833" transform="translate(21.25 7.29166)" fill="black"/>
<rect width="1.25" height="1.45833" transform="translate(21.25 8.75)" fill="#D29945"/>
<rect width="1.25" height="1.45833" transform="translate(21.25 10.2083)" fill="#F5CD45"/>
<rect width="1.25" height="1.45833" transform="translate(21.25 11.6667)" fill="#F5CD45"/>
<rect width="1.25" height="1.45833" transform="translate(21.25 13.125)" fill="#F5CD45"/>
<rect width="1.25" height="1.45833" transform="translate(21.25 14.5833)" fill="#F5CD45"/>
<rect width="1.25" height="1.45833" transform="translate(21.25 16.0417)" fill="#F5CD45"/>
<rect width="1.25" height="1.45833" transform="translate(21.25 17.5)" fill="#F5CD45"/>
<rect width="1.25" height="1.45833" transform="translate(21.25 18.9583)" fill="#F5CD45"/>
<rect width="1.25" height="1.45833" transform="translate(21.25 20.4167)" fill="#F5CD45"/>
<rect width="1.25" height="1.45833" transform="translate(21.25 21.875)" fill="#F5CD45"/>
<rect width="1.25" height="1.45833" transform="translate(21.25 23.3333)" fill="#F5CD45"/>
<rect width="1.25" height="1.45833" transform="translate(21.25 24.7917)" fill="#F5CD45"/>
<rect width="1.25" height="1.45833" transform="translate(21.25 26.25)" fill="#D29945"/>
<rect width="1.25" height="1.45833" transform="translate(21.25 27.7083)" fill="#D29945"/>
<rect width="1.25" height="1.45833" transform="translate(21.25 29.1667)" fill="black"/>
<rect width="1.25" height="1.45833" transform="translate(22.5 8.75)" fill="black"/>
<rect width="1.25" height="1.45833" transform="translate(22.5 10.2083)" fill="#D29945"/>
<rect width="1.25" height="1.45833" transform="translate(22.5 11.6667)" fill="#D29945"/>
<rect width="1.25" height="1.45833" transform="translate(22.5 13.125)" fill="#F5CD45"/>
<rect width="1.25" height="1.45833" transform="translate(22.5 14.5833)" fill="#F5CD45"/>
<rect width="1.25" height="1.45833" transform="translate(22.5 16.0417)" fill="#F5CD45"/>
<rect width="1.25" height="1.45833" transform="translate(22.5 17.5)" fill="#F5CD45"/>
<rect width="1.25" height="1.45833" transform="translate(22.5 18.9583)" fill="#F5CD45"/>
<rect width="1.25" height="1.45833" transform="translate(22.5 20.4167)" fill="#F5CD45"/>
<rect width="1.25" height="1.45833" transform="translate(22.5 21.875)" fill="#F5CD45"/>
<rect width="1.25" height="1.45833" transform="translate(22.5 23.3333)" fill="#D29945"/>
<rect width="1.25" height="1.45833" transform="translate(22.5 24.7917)" fill="#D29945"/>
<rect width="1.25" height="1.45833" transform="translate(22.5 26.25)" fill="#D29945"/>
<rect width="1.25" height="1.45833" transform="translate(22.5 27.7083)" fill="#D29945"/>
<rect width="1.25" height="1.45833" transform="translate(22.5 29.1667)" fill="black"/>
<rect width="1.25" height="1.45833" transform="translate(23.75 10.2083)" fill="black"/>
<rect width="1.25" height="1.45833" transform="translate(23.75 11.6667)" fill="black"/>
<rect width="1.25" height="1.45833" transform="translate(23.75 13.125)" fill="#D29945"/>
<rect width="1.25" height="1.45833" transform="translate(23.75 14.5833)" fill="#D29945"/>
<rect width="1.25" height="1.45833" transform="translate(23.75 16.0417)" fill="#D29945"/>
<rect width="1.25" height="1.45833" transform="translate(23.75 17.5)" fill="#F5CD45"/>
<rect width="1.25" height="1.45833" transform="translate(23.75 18.9583)" fill="#F5CD45"/>
<rect width="1.25" height="1.45833" transform="translate(23.75 20.4167)" fill="#D29945"/>
<rect width="1.25" height="1.45833" transform="translate(23.75 21.875)" fill="#D29945"/>
<rect width="1.25" height="1.45833" transform="translate(23.75 23.3333)" fill="#D29945"/>
<rect width="1.25" height="1.45833" transform="translate(23.75 24.7917)" fill="#D29945"/>
<rect width="1.25" height="1.45833" transform="translate(23.75 26.25)" fill="black"/>
<rect width="1.25" height="1.45833" transform="translate(23.75 27.7083)" fill="black"/>
<rect width="1.25" height="1.45833" transform="translate(25 13.125)" fill="black"/>
<rect width="1.25" height="1.45833" transform="translate(25 14.5833)" fill="black"/>
<rect width="1.25" height="1.45833" transform="translate(25 16.0417)" fill="#D29945"/>
<rect width="1.25" height="1.45833" transform="translate(25 17.5)" fill="#D29945"/>
<rect width="1.25" height="1.45833" transform="translate(25 18.9583)" fill="#D29945"/>
<rect width="1.25" height="1.45833" transform="translate(25 20.4167)" fill="#D29945"/>
<rect width="1.25" height="1.45833" transform="translate(25 21.875)" fill="black"/>
<rect width="1.25" height="1.45833" transform="translate(25 23.3333)" fill="black"/>
<rect width="1.25" height="1.45833" transform="translate(25 24.7917)" fill="black"/>
<rect width="1.25" height="1.45833" transform="translate(26.25 16.0417)" fill="black"/>
<rect width="1.25" height="1.45833" transform="translate(26.25 17.5)" fill="black"/>
<rect width="1.25" height="1.45833" transform="translate(26.25 18.9583)" fill="black"/>
<rect width="1.25" height="1.45833" transform="translate(26.25 20.4167)" fill="black"/>
</g>
<defs>
<clipPath id="clip0_3_5256">
<rect width="30" height="35" fill="white"/>
</clipPath>
</defs>
</svg>
