<svg width="90" height="100" viewBox="0 0 90 100" fill="none" xmlns="http://www.w3.org/2000/svg">
<rect x="25" width="5" height="5" fill="#4E2B08"/>
<rect x="25" width="5" height="5" stroke="white"/>
<rect x="25" y="5" width="5" height="5" fill="#4E2B08"/>
<rect x="25" y="5" width="5" height="5" stroke="white"/>
<rect x="25" y="10" width="5" height="5" fill="#4E2B08"/>
<rect x="25" y="10" width="5" height="5" stroke="white"/>
<rect x="25" y="15" width="5" height="5" fill="#4E2B08"/>
<rect x="25" y="15" width="5" height="5" stroke="white"/>
<rect x="25" y="20" width="5" height="5" fill="#4E2B08"/>
<rect x="25" y="20" width="5" height="5" stroke="white"/>
<rect x="25" y="25" width="5" height="5" fill="#EAC496"/>
<rect x="25" y="25" width="5" height="5" stroke="white"/>
<rect x="25" y="30" width="5" height="5" fill="#EAC496"/>
<rect x="25" y="30" width="5" height="5" stroke="white"/>
<rect x="25" y="35" width="5" height="5" fill="#EAC496"/>
<rect x="25" y="35" width="5" height="5" stroke="white"/>
<rect x="25" y="40" width="5" height="5" fill="#EAC496"/>
<rect x="25" y="40" width="5" height="5" stroke="white"/>
<rect x="25" y="45" width="5" height="5" fill="#EAC496"/>
<rect x="25" y="45" width="5" height="5" stroke="white"/>
<rect x="25" y="50" width="5" height="5" fill="#EAC496"/>
<rect x="25" y="50" width="5" height="5" stroke="white"/>
<rect x="25" y="55" width="5" height="5" fill="#EAC496"/>
<rect x="25" y="55" width="5" height="5" stroke="white"/>
<rect x="25" y="60" width="5" height="5" fill="#EAC496"/>
<rect x="25" y="60" width="5" height="5" stroke="white"/>
<rect x="25" y="65" width="5" height="5" fill="#EAC496"/>
<rect x="25" y="65" width="5" height="5" stroke="white"/>
<rect x="25" y="70" width="5" height="5" fill="#EAC496"/>
<rect x="25" y="70" width="5" height="5" stroke="white"/>
<rect x="25" y="75" width="5" height="5" fill="#EAC496"/>
<rect x="25" y="75" width="5" height="5" stroke="white"/>
<rect x="25" y="80" width="5" height="5" fill="#EAC496"/>
<rect x="25" y="80" width="5" height="5" stroke="white"/>
<rect x="25" y="85" width="5" height="5" fill="#EAC496"/>
<rect x="25" y="85" width="5" height="5" stroke="white"/>
<rect x="30" y="85" width="5" height="5" fill="#EAC496"/>
<rect x="30" y="85" width="5" height="5" stroke="white"/>
<rect x="25" y="90" width="5" height="5" fill="#EAC496"/>
<rect x="25" y="90" width="5" height="5" stroke="white"/>
<rect x="30" y="90" width="5" height="5" fill="#EAC496"/>
<rect x="30" y="90" width="5" height="5" stroke="white"/>
<rect x="25" y="95" width="5" height="5" fill="#EAC496"/>
<rect x="25" y="95" width="5" height="5" stroke="white"/>
<rect x="30" y="95" width="5" height="5" fill="#EAC496"/>
<rect x="30" y="95" width="5" height="5" stroke="white"/>
<rect x="20" y="10" width="5" height="5" fill="#4E2B08"/>
<rect x="20" y="10" width="5" height="5" stroke="white"/>
<rect x="15" y="10" width="5" height="5" fill="#4E2B08"/>
<rect x="15" y="10" width="5" height="5" stroke="white"/>
<rect x="10" y="50" width="5" height="5" fill="black"/>
<rect x="10" y="50" width="5" height="5" stroke="white"/>
<rect x="5" y="50" width="5" height="5" fill="#4E2B08"/>
<rect x="5" y="50" width="5" height="5" stroke="white"/>
<rect y="50" width="5" height="5" fill="#4E2B08"/>
<rect y="50" width="5" height="5" stroke="white"/>
<rect x="65" y="50" width="5" height="5" fill="#4E2B08"/>
<rect x="65" y="50" width="5" height="5" stroke="white"/>
<rect x="65" y="70" width="5" height="5" fill="#D9D9D9"/>
<rect x="65" y="70" width="5" height="5" stroke="white"/>
<rect x="60" y="70" width="5" height="5" fill="#D9D9D9"/>
<rect x="60" y="70" width="5" height="5" stroke="white"/>
<rect x="85" y="70" width="5" height="5" fill="black"/>
<rect x="85" y="70" width="5" height="5" stroke="white"/>
<rect x="80" y="70" width="5" height="5" fill="#FC5F3D"/>
<rect x="80" y="70" width="5" height="5" stroke="white"/>
<rect x="20" y="5" width="5" height="5" fill="#4E2B08"/>
<rect x="20" y="5" width="5" height="5" stroke="white"/>
<rect x="10" y="15" width="5" height="5" fill="#4E2B08"/>
<rect x="10" y="15" width="5" height="5" stroke="white"/>
<rect x="15" y="15" width="5" height="5" fill="#4E2B08"/>
<rect x="15" y="15" width="5" height="5" stroke="white"/>
<rect x="10" y="55" width="5" height="5" fill="black"/>
<rect x="10" y="55" width="5" height="5" stroke="white"/>
<rect y="55" width="5" height="5" fill="#4E2B08"/>
<rect y="55" width="5" height="5" stroke="white"/>
<rect x="5" y="55" width="5" height="5" fill="#4E2B08"/>
<rect x="5" y="55" width="5" height="5" stroke="white"/>
<rect x="65" y="55" width="5" height="5" fill="#4E2B08"/>
<rect x="65" y="55" width="5" height="5" stroke="white"/>
<rect x="20" y="15" width="5" height="5" fill="#4E2B08"/>
<rect x="20" y="15" width="5" height="5" stroke="white"/>
<rect x="60" y="75" width="5" height="5" fill="black"/>
<rect x="60" y="75" width="5" height="5" stroke="white"/>
<rect x="30" y="10" width="5" height="5" fill="#4E2B08"/>
<rect x="30" y="10" width="5" height="5" stroke="white"/>
<rect x="20" y="20" width="5" height="5" fill="#4E2B08"/>
<rect x="20" y="20" width="5" height="5" stroke="white"/>
<rect x="20" y="25" width="5" height="5" fill="#4E2B08"/>
<rect x="20" y="25" width="5" height="5" stroke="white"/>
<rect x="20" y="30" width="5" height="5" fill="#EAC496"/>
<rect x="20" y="30" width="5" height="5" stroke="white"/>
<rect x="20" y="35" width="5" height="5" fill="#EAC496"/>
<rect x="20" y="35" width="5" height="5" stroke="white"/>
<rect x="20" y="40" width="5" height="5" fill="#EAC496"/>
<rect x="20" y="40" width="5" height="5" stroke="white"/>
<rect x="20" y="45" width="5" height="5" fill="#EAC496"/>
<rect x="20" y="45" width="5" height="5" stroke="white"/>
<rect x="20" y="50" width="5" height="5" fill="#EAC496"/>
<rect x="20" y="50" width="5" height="5" stroke="white"/>
<rect x="20" y="55" width="5" height="5" fill="#EAC496"/>
<rect x="20" y="55" width="5" height="5" stroke="white"/>
<rect x="20" y="60" width="5" height="5" fill="#EAC496"/>
<rect x="20" y="60" width="5" height="5" stroke="white"/>
<rect x="20" y="65" width="5" height="5" fill="#EAC496"/>
<rect x="20" y="65" width="5" height="5" stroke="white"/>
<rect x="20" y="70" width="5" height="5" fill="#EAC496"/>
<rect x="20" y="70" width="5" height="5" stroke="white"/>
<rect x="20" y="75" width="5" height="5" fill="#EAC496"/>
<rect x="20" y="75" width="5" height="5" stroke="white"/>
<rect x="20" y="80" width="5" height="5" fill="#EAC496"/>
<rect x="20" y="80" width="5" height="5" stroke="white"/>
<rect x="20" y="85" width="5" height="5" fill="#EAC496"/>
<rect x="20" y="85" width="5" height="5" stroke="white"/>
<rect x="15" y="20" width="5" height="5" fill="#4E2B08"/>
<rect x="15" y="20" width="5" height="5" stroke="white"/>
<rect x="15" y="25" width="5" height="5" fill="#4E2B08"/>
<rect x="15" y="25" width="5" height="5" stroke="white"/>
<rect x="10" y="20" width="5" height="5" fill="#4E2B08"/>
<rect x="10" y="20" width="5" height="5" stroke="white"/>
<rect x="10" y="25" width="5" height="5" fill="#4E2B08"/>
<rect x="10" y="25" width="5" height="5" stroke="white"/>
<rect x="10" y="30" width="5" height="5" fill="#4E2B08"/>
<rect x="10" y="30" width="5" height="5" stroke="white"/>
<rect x="10" y="35" width="5" height="5" fill="#4E2B08"/>
<rect x="10" y="35" width="5" height="5" stroke="white"/>
<rect x="15" y="30" width="5" height="5" fill="#4E2B08"/>
<rect x="15" y="30" width="5" height="5" stroke="white"/>
<rect x="15" y="35" width="5" height="5" fill="#4E2B08"/>
<rect x="15" y="35" width="5" height="5" stroke="white"/>
<rect x="5" y="30" width="5" height="5" fill="#4E2B08"/>
<rect x="5" y="30" width="5" height="5" stroke="white"/>
<rect x="5" y="35" width="5" height="5" fill="#4E2B08"/>
<rect x="5" y="35" width="5" height="5" stroke="white"/>
<rect y="30" width="5" height="5" fill="#4E2B08"/>
<rect y="30" width="5" height="5" stroke="white"/>
<rect y="35" width="5" height="5" fill="#4E2B08"/>
<rect y="35" width="5" height="5" stroke="white"/>
<rect x="5" y="25" width="5" height="5" fill="#4E2B08"/>
<rect x="5" y="25" width="5" height="5" stroke="white"/>
<rect x="5" y="21" width="5" height="5" fill="#4E2B08"/>
<rect x="5" y="21" width="5" height="5" stroke="white"/>
<rect x="65" y="30" width="5" height="5" fill="#4E2B08"/>
<rect x="65" y="30" width="5" height="5" stroke="white"/>
<rect x="65" y="35" width="5" height="5" fill="#4E2B08"/>
<rect x="65" y="35" width="5" height="5" stroke="white"/>
<rect x="10" y="60" width="5" height="5" fill="#4E2B08"/>
<rect x="10" y="60" width="5" height="5" stroke="white"/>
<rect x="10" y="40" width="5" height="5" fill="#4E2B08"/>
<rect x="10" y="40" width="5" height="5" stroke="white"/>
<rect x="10" y="45" width="5" height="5" fill="#4E2B08"/>
<rect x="10" y="45" width="5" height="5" stroke="white"/>
<rect x="10" y="65" width="5" height="5" fill="#4E2B08"/>
<rect x="10" y="65" width="5" height="5" stroke="white"/>
<rect x="5" y="60" width="5" height="5" fill="#4E2B08"/>
<rect x="5" y="60" width="5" height="5" stroke="white"/>
<rect x="10" y="70" width="5" height="5" fill="#4E2B08"/>
<rect x="10" y="70" width="5" height="5" stroke="white"/>
<rect x="10" y="75" width="5" height="5" fill="#4E2B08"/>
<rect x="10" y="75" width="5" height="5" stroke="white"/>
<rect x="5" y="40" width="5" height="5" fill="#4E2B08"/>
<rect x="5" y="40" width="5" height="5" stroke="white"/>
<rect x="5" y="45" width="5" height="5" fill="#4E2B08"/>
<rect x="5" y="45" width="5" height="5" stroke="white"/>
<rect x="5" y="65" width="5" height="5" fill="#4E2B08"/>
<rect x="5" y="65" width="5" height="5" stroke="white"/>
<rect x="5" y="70" width="5" height="5" fill="#4E2B08"/>
<rect x="5" y="70" width="5" height="5" stroke="white"/>
<rect x="5" y="75" width="5" height="5" fill="#4E2B08"/>
<rect x="5" y="75" width="5" height="5" stroke="white"/>
<rect y="60" width="5" height="5" fill="#4E2B08"/>
<rect y="60" width="5" height="5" stroke="white"/>
<rect y="40" width="5" height="5" fill="#4E2B08"/>
<rect y="40" width="5" height="5" stroke="white"/>
<rect y="45" width="5" height="5" fill="#4E2B08"/>
<rect y="45" width="5" height="5" stroke="white"/>
<rect x="20" y="90" width="5" height="5" fill="#EAC496"/>
<rect x="20" y="90" width="5" height="5" stroke="white"/>
<rect x="20" y="95" width="5" height="5" fill="#EAC496"/>
<rect x="20" y="95" width="5" height="5" stroke="white"/>
<rect x="5" y="80" width="5" height="5" fill="#4E2B08"/>
<rect x="5" y="80" width="5" height="5" stroke="white"/>
<rect x="5" y="85" width="5" height="5" fill="#4E2B08"/>
<rect x="5" y="85" width="5" height="5" stroke="white"/>
<rect x="5" y="90" width="5" height="5" fill="#4E2B08"/>
<rect x="5" y="90" width="5" height="5" stroke="white"/>
<rect x="10" y="90" width="5" height="5" fill="#4E2B08"/>
<rect x="10" y="90" width="5" height="5" stroke="white"/>
<rect y="65" width="5" height="5" fill="#4E2B08"/>
<rect y="65" width="5" height="5" stroke="white"/>
<rect y="70" width="5" height="5" fill="#4E2B08"/>
<rect y="70" width="5" height="5" stroke="white"/>
<rect y="75" width="5" height="5" fill="#4E2B08"/>
<rect y="75" width="5" height="5" stroke="white"/>
<rect x="10" y="80" width="5" height="5" fill="#4E2B08"/>
<rect x="10" y="80" width="5" height="5" stroke="white"/>
<rect x="10" y="85" width="5" height="5" fill="#4E2B08"/>
<rect x="10" y="85" width="5" height="5" stroke="white"/>
<rect x="65" y="40" width="5" height="5" fill="#4E2B08"/>
<rect x="65" y="40" width="5" height="5" stroke="white"/>
<rect x="65" y="45" width="5" height="5" fill="#4E2B08"/>
<rect x="65" y="45" width="5" height="5" stroke="white"/>
<rect y="80" width="5" height="5" fill="#4E2B08"/>
<rect y="80" width="5" height="5" stroke="white"/>
<rect y="85" width="5" height="5" fill="#4E2B08"/>
<rect y="85" width="5" height="5" stroke="white"/>
<rect x="65" y="60" width="5" height="5" fill="#4E2B08"/>
<rect x="65" y="60" width="5" height="5" stroke="white"/>
<rect x="65" y="65" width="5" height="5" fill="black"/>
<rect x="65" y="65" width="5" height="5" stroke="white"/>
<rect x="70" y="65" width="5" height="5" fill="black"/>
<rect x="70" y="65" width="5" height="5" stroke="white"/>
<rect x="75" y="65" width="5" height="5" fill="black"/>
<rect x="75" y="65" width="5" height="5" stroke="white"/>
<rect x="80" y="65" width="5" height="5" fill="black"/>
<rect x="80" y="65" width="5" height="5" stroke="white"/>
<rect x="80" y="55" width="5" height="5" fill="#F4F2F2"/>
<rect x="80" y="55" width="5" height="5" stroke="white"/>
<rect x="80" y="50" width="5" height="5" fill="#DACDCD"/>
<rect x="80" y="50" width="5" height="5" stroke="white"/>
<rect x="80" y="45" width="5" height="5" fill="#DACDCD"/>
<rect x="80" y="45" width="5" height="5" stroke="white"/>
<rect x="80" y="40" width="5" height="5" fill="#F4F2F2"/>
<rect x="80" y="40" width="5" height="5" stroke="white"/>
<rect x="80" y="35" width="5" height="5" fill="#DACDCD"/>
<rect x="80" y="35" width="5" height="5" stroke="white"/>
<rect x="80" y="30" width="5" height="5" fill="#DACDCD"/>
<rect x="80" y="30" width="5" height="5" stroke="white"/>
<rect x="65" y="75" width="5" height="5" fill="black"/>
<rect x="65" y="75" width="5" height="5" stroke="white"/>
<rect x="70" y="75" width="5" height="5" fill="black"/>
<rect x="70" y="75" width="5" height="5" stroke="white"/>
<rect x="75" y="75" width="5" height="5" fill="black"/>
<rect x="75" y="75" width="5" height="5" stroke="white"/>
<rect x="80" y="75" width="5" height="5" fill="black"/>
<rect x="80" y="75" width="5" height="5" stroke="white"/>
<rect x="15" y="40" width="5" height="5" fill="#4E2B08"/>
<rect x="15" y="40" width="5" height="5" stroke="white"/>
<rect x="15" y="45" width="5" height="5" fill="#4E2B08"/>
<rect x="15" y="45" width="5" height="5" stroke="white"/>
<rect x="15" y="50" width="5" height="5" fill="#EAC496"/>
<rect x="15" y="50" width="5" height="5" stroke="white"/>
<rect x="15" y="55" width="5" height="5" fill="#EAC496"/>
<rect x="15" y="55" width="5" height="5" stroke="white"/>
<rect x="15" y="60" width="5" height="5" fill="black"/>
<rect x="15" y="60" width="5" height="5" stroke="white"/>
<rect x="15" y="65" width="5" height="5" fill="black"/>
<rect x="15" y="65" width="5" height="5" stroke="white"/>
<rect x="15" y="70" width="5" height="5" fill="black"/>
<rect x="15" y="70" width="5" height="5" stroke="white"/>
<rect x="15" y="75" width="5" height="5" fill="black"/>
<rect x="15" y="75" width="5" height="5" stroke="white"/>
<rect x="15" y="80" width="5" height="5" fill="black"/>
<rect x="15" y="80" width="5" height="5" stroke="white"/>
<rect x="15" y="85" width="5" height="5" fill="black"/>
<rect x="15" y="85" width="5" height="5" stroke="white"/>
<rect x="15" y="90" width="5" height="5" fill="black"/>
<rect x="15" y="90" width="5" height="5" stroke="white"/>
<rect x="15" y="95" width="5" height="5" fill="black"/>
<rect x="15" y="95" width="5" height="5" stroke="white"/>
<rect x="30" y="15" width="5" height="5" fill="#4E2B08"/>
<rect x="30" y="15" width="5" height="5" stroke="white"/>
<rect x="30" width="5" height="5" fill="#4E2B08"/>
<rect x="30" width="5" height="5" stroke="white"/>
<rect x="35" y="10" width="5" height="5" fill="#4E2B08"/>
<rect x="35" y="10" width="5" height="5" stroke="white"/>
<rect x="30" y="5" width="5" height="5" fill="#4E2B08"/>
<rect x="30" y="5" width="5" height="5" stroke="white"/>
<rect x="30" y="20" width="5" height="5" fill="#EAC496"/>
<rect x="30" y="20" width="5" height="5" stroke="white"/>
<rect x="30" y="25" width="5" height="5" fill="#EAC496"/>
<rect x="30" y="25" width="5" height="5" stroke="white"/>
<rect x="30" y="30" width="5" height="5" fill="#EAC496"/>
<rect x="30" y="30" width="5" height="5" stroke="white"/>
<rect x="30" y="35" width="5" height="5" fill="#EAC496"/>
<rect x="30" y="35" width="5" height="5" stroke="white"/>
<rect x="30" y="40" width="5" height="5" fill="#AF8E6D"/>
<rect x="30" y="40" width="5" height="5" stroke="white"/>
<rect x="30" y="45" width="5" height="5" fill="#698AB0"/>
<rect x="30" y="45" width="5" height="5" stroke="white"/>
<rect x="30" y="50" width="5" height="5" fill="#EAC496"/>
<rect x="30" y="50" width="5" height="5" stroke="white"/>
<rect x="30" y="55" width="5" height="5" fill="#EAC496"/>
<rect x="30" y="55" width="5" height="5" stroke="white"/>
<rect x="30" y="60" width="5" height="5" fill="#EAC496"/>
<rect x="30" y="60" width="5" height="5" stroke="white"/>
<rect x="30" y="65" width="5" height="5" fill="#EAC496"/>
<rect x="30" y="65" width="5" height="5" stroke="white"/>
<rect x="30" y="70" width="5" height="5" fill="#EAC496"/>
<rect x="30" y="70" width="5" height="5" stroke="white"/>
<rect x="30" y="75" width="5" height="5" fill="#EAC496"/>
<rect x="30" y="75" width="5" height="5" stroke="white"/>
<rect x="30" y="80" width="5" height="5" fill="black"/>
<rect x="30" y="80" width="5" height="5" stroke="white"/>
<rect x="35" y="15" width="5" height="5" fill="#4E2B08"/>
<rect x="35" y="15" width="5" height="5" stroke="white"/>
<rect x="40" y="10" width="5" height="5" fill="#4E2B08"/>
<rect x="40" y="10" width="5" height="5" stroke="white"/>
<rect x="35" width="5" height="5" fill="#4E2B08"/>
<rect x="35" width="5" height="5" stroke="white"/>
<rect x="35" y="5" width="5" height="5" fill="#4E2B08"/>
<rect x="35" y="5" width="5" height="5" stroke="white"/>
<rect x="45.0001" y="10" width="5" height="5" fill="#4E2B08"/>
<rect x="45.0001" y="10" width="5" height="5" stroke="white"/>
<rect x="35" y="20" width="5" height="5" fill="#EAC496"/>
<rect x="35" y="20" width="5" height="5" stroke="white"/>
<rect x="35" y="25" width="5" height="5" fill="#EAC496"/>
<rect x="35" y="25" width="5" height="5" stroke="white"/>
<rect x="35" y="30" width="5" height="5" fill="#EAC496"/>
<rect x="35" y="30" width="5" height="5" stroke="white"/>
<rect x="35" y="35" width="5" height="5" fill="#EAC496"/>
<rect x="35" y="35" width="5" height="5" stroke="white"/>
<rect x="35" y="40" width="5" height="5" fill="#AF8E6D"/>
<rect x="35" y="40" width="5" height="5" stroke="white"/>
<rect x="35" y="45" width="5" height="5" fill="#EFD7BF"/>
<rect x="35" y="45" width="5" height="5" stroke="white"/>
<rect x="35" y="50" width="5" height="5" fill="#EAC496"/>
<rect x="35" y="50" width="5" height="5" stroke="white"/>
<rect x="35" y="55" width="5" height="5" fill="#EAC496"/>
<rect x="35" y="55" width="5" height="5" stroke="white"/>
<rect x="35" y="60" width="5" height="5" fill="#EAC496"/>
<rect x="35" y="60" width="5" height="5" stroke="white"/>
<rect x="35" y="65" width="5" height="5" fill="#EAC496"/>
<rect x="35" y="65" width="5" height="5" stroke="white"/>
<rect x="35" y="70" width="5" height="5" fill="#EAC496"/>
<rect x="35" y="70" width="5" height="5" stroke="white"/>
<rect x="35" y="75" width="5" height="5" fill="#EAC496"/>
<rect x="35" y="75" width="5" height="5" stroke="white"/>
<rect x="35" y="80" width="5" height="5" fill="#EAC496"/>
<rect x="35" y="80" width="5" height="5" stroke="white"/>
<rect x="35" y="85" width="5" height="5" fill="black"/>
<rect x="35" y="85" width="5" height="5" stroke="white"/>
<rect x="35" y="90" width="5" height="5" fill="black"/>
<rect x="35" y="90" width="5" height="5" stroke="white"/>
<rect x="35" y="95" width="5" height="5" fill="black"/>
<rect x="35" y="95" width="5" height="5" stroke="white"/>
<rect x="40" y="15" width="5" height="5" fill="#4E2B08"/>
<rect x="40" y="15" width="5" height="5" stroke="white"/>
<rect x="40" width="5" height="5" fill="#4E2B08"/>
<rect x="40" width="5" height="5" stroke="white"/>
<rect x="50" y="10" width="5" height="5" fill="#4E2B08"/>
<rect x="50" y="10" width="5" height="5" stroke="white"/>
<rect x="45.0001" y="15" width="5" height="5" fill="#4E2B08"/>
<rect x="45.0001" y="15" width="5" height="5" stroke="white"/>
<rect x="40" y="5" width="5" height="5" fill="#4E2B08"/>
<rect x="40" y="5" width="5" height="5" stroke="white"/>
<rect x="54.9999" y="10" width="5" height="5" fill="#4E2B08"/>
<rect x="54.9999" y="10" width="5" height="5" stroke="white"/>
<rect x="50" y="15" width="5" height="5" fill="#4E2B08"/>
<rect x="50" y="15" width="5" height="5" stroke="white"/>
<rect x="60" y="10" width="5" height="5" fill="#4E2B08"/>
<rect x="60" y="10" width="5" height="5" stroke="white"/>
<rect x="54.9999" y="15" width="5" height="5" fill="#4E2B08"/>
<rect x="54.9999" y="15" width="5" height="5" stroke="white"/>
<rect x="60" y="15" width="5" height="5" fill="#4E2B08"/>
<rect x="60" y="15" width="5" height="5" stroke="white"/>
<rect x="65" y="15" width="5" height="5" fill="#4E2B08"/>
<rect x="65" y="15" width="5" height="5" stroke="white"/>
<rect x="40" y="20" width="5" height="5" fill="#EAC496"/>
<rect x="40" y="20" width="5" height="5" stroke="white"/>
<rect x="40" y="25" width="5" height="5" fill="#EAC496"/>
<rect x="40" y="25" width="5" height="5" stroke="white"/>
<rect x="40" y="30" width="5" height="5" fill="#EAC496"/>
<rect x="40" y="30" width="5" height="5" stroke="white"/>
<rect x="40" y="35" width="5" height="5" fill="#EAC496"/>
<rect x="40" y="35" width="5" height="5" stroke="white"/>
<rect x="40" y="40" width="5" height="5" fill="#EAC496"/>
<rect x="40" y="40" width="5" height="5" stroke="white"/>
<rect x="40" y="45" width="5" height="5" fill="#EAC496"/>
<rect x="40" y="45" width="5" height="5" stroke="white"/>
<rect x="40" y="50" width="5" height="5" fill="#EAC496"/>
<rect x="40" y="50" width="5" height="5" stroke="white"/>
<rect x="40" y="55" width="5" height="5" fill="#EAC496"/>
<rect x="40" y="55" width="5" height="5" stroke="white"/>
<rect x="40" y="60" width="5" height="5" fill="#EAC496"/>
<rect x="40" y="60" width="5" height="5" stroke="white"/>
<rect x="40" y="65" width="5" height="5" fill="#EAC496"/>
<rect x="40" y="65" width="5" height="5" stroke="white"/>
<rect x="40" y="70" width="5" height="5" fill="#FF8888"/>
<rect x="40" y="70" width="5" height="5" stroke="white"/>
<rect x="40" y="75" width="5" height="5" fill="#EAC496"/>
<rect x="40" y="75" width="5" height="5" stroke="white"/>
<rect x="40" y="80" width="5" height="5" fill="#EAC496"/>
<rect x="40" y="80" width="5" height="5" stroke="white"/>
<rect x="40" y="85" width="5" height="5" fill="black"/>
<rect x="40" y="85" width="5" height="5" stroke="white"/>
<rect x="45.0001" width="5" height="5" fill="#4E2B08"/>
<rect x="45.0001" width="5" height="5" stroke="white"/>
<rect x="45.0001" y="5" width="5" height="5" fill="#4E2B08"/>
<rect x="45.0001" y="5" width="5" height="5" stroke="white"/>
<rect x="45.0001" y="20" width="5" height="5" fill="#EAC496"/>
<rect x="45.0001" y="20" width="5" height="5" stroke="white"/>
<rect x="45.0001" y="25" width="5" height="5" fill="#EAC496"/>
<rect x="45.0001" y="25" width="5" height="5" stroke="white"/>
<rect x="45.0001" y="30" width="5" height="5" fill="#EAC496"/>
<rect x="45.0001" y="30" width="5" height="5" stroke="white"/>
<rect x="45.0001" y="35" width="5" height="5" fill="#EAC496"/>
<rect x="45.0001" y="35" width="5" height="5" stroke="white"/>
<rect x="45.0001" y="40" width="5" height="5" fill="#EAC496"/>
<rect x="45.0001" y="40" width="5" height="5" stroke="white"/>
<rect x="45.0001" y="45" width="5" height="5" fill="#EAC496"/>
<rect x="45.0001" y="45" width="5" height="5" stroke="white"/>
<rect x="45.0001" y="50" width="5" height="5" fill="#EAC496"/>
<rect x="45.0001" y="50" width="5" height="5" stroke="white"/>
<rect x="45.0001" y="55" width="5" height="5" fill="#1C0F06"/>
<rect x="45.0001" y="55" width="5" height="5" stroke="white"/>
<rect x="45.0001" y="60" width="5" height="5" fill="#EAC496"/>
<rect x="45.0001" y="60" width="5" height="5" stroke="white"/>
<rect x="45.0001" y="65" width="5" height="5" fill="#EAC496"/>
<rect x="45.0001" y="65" width="5" height="5" stroke="white"/>
<rect x="45.0001" y="70" width="5" height="5" fill="#FF8888"/>
<rect x="45.0001" y="70" width="5" height="5" stroke="white"/>
<rect x="45.0001" y="80" width="5" height="5" fill="#EAC496"/>
<rect x="45.0001" y="80" width="5" height="5" stroke="white"/>
<rect x="45.0001" y="75" width="5" height="5" fill="#EAC496"/>
<rect x="45.0001" y="75" width="5" height="5" stroke="white"/>
<rect x="45.0001" y="85" width="5" height="5" fill="black"/>
<rect x="45.0001" y="85" width="5" height="5" stroke="white"/>
<rect x="50" width="5" height="5" fill="#4E2B08"/>
<rect x="50" width="5" height="5" stroke="white"/>
<rect x="50" y="5" width="5" height="5" fill="#4E2B08"/>
<rect x="50" y="5" width="5" height="5" stroke="white"/>
<rect x="50" y="20" width="5" height="5" fill="#EAC496"/>
<rect x="50" y="20" width="5" height="5" stroke="white"/>
<rect x="50" y="25" width="5" height="5" fill="#EAC496"/>
<rect x="50" y="25" width="5" height="5" stroke="white"/>
<rect x="50" y="30" width="5" height="5" fill="#EAC496"/>
<rect x="50" y="30" width="5" height="5" stroke="white"/>
<rect x="50" y="35" width="5" height="5" fill="#EAC496"/>
<rect x="50" y="35" width="5" height="5" stroke="white"/>
<rect x="50" y="40" width="5" height="5" fill="#EAC496"/>
<rect x="50" y="40" width="5" height="5" stroke="white"/>
<rect x="50" y="45" width="5" height="5" fill="#EAC496"/>
<rect x="50" y="45" width="5" height="5" stroke="white"/>
<rect x="50" y="50" width="5" height="5" fill="#EAC496"/>
<rect x="50" y="50" width="5" height="5" stroke="white"/>
<rect x="50" y="55" width="5" height="5" fill="#EAC496"/>
<rect x="50" y="55" width="5" height="5" stroke="white"/>
<rect x="50" y="60" width="5" height="5" fill="#EAC496"/>
<rect x="50" y="60" width="5" height="5" stroke="white"/>
<rect x="50" y="70" width="5" height="5" fill="black"/>
<rect x="50" y="70" width="5" height="5" stroke="white"/>
<rect x="50" y="65" width="5" height="5" fill="#EAC496"/>
<rect x="50" y="65" width="5" height="5" stroke="white"/>
<rect x="50" y="80" width="5" height="5" fill="#EAC496"/>
<rect x="50" y="80" width="5" height="5" stroke="white"/>
<rect x="70" y="70" width="5" height="5" fill="#D9D9D9"/>
<rect x="70" y="70" width="5" height="5" stroke="white"/>
<rect x="50" y="75" width="5" height="5" fill="#EAC396"/>
<rect x="50" y="75" width="5" height="5" stroke="white"/>
<rect x="50" y="85" width="5" height="5" fill="black"/>
<rect x="50" y="85" width="5" height="5" stroke="white"/>
<rect x="54.9999" y="5" width="5" height="5" fill="#4E2B08"/>
<rect x="54.9999" y="5" width="5" height="5" stroke="white"/>
<rect x="54.9999" y="20" width="5" height="5" fill="#4E2B08"/>
<rect x="54.9999" y="20" width="5" height="5" stroke="white"/>
<rect x="54.9999" y="25" width="5" height="5" fill="#EAC496"/>
<rect x="54.9999" y="25" width="5" height="5" stroke="white"/>
<rect x="54.9999" y="30" width="5" height="5" fill="#EAC496"/>
<rect x="54.9999" y="30" width="5" height="5" stroke="white"/>
<rect x="54.9999" y="35" width="5" height="5" fill="#EAC496"/>
<rect x="54.9999" y="35" width="5" height="5" stroke="white"/>
<rect x="54.9999" y="40" width="5" height="5" fill="#AF8E6D"/>
<rect x="54.9999" y="40" width="5" height="5" stroke="white"/>
<rect x="54.9999" y="45" width="5" height="5" fill="#698AB0"/>
<rect x="54.9999" y="45" width="5" height="5" stroke="white"/>
<rect x="54.9999" y="50" width="5" height="5" fill="#EAC496"/>
<rect x="54.9999" y="50" width="5" height="5" stroke="white"/>
<rect x="54.9999" y="55" width="5" height="5" fill="#EAC496"/>
<rect x="54.9999" y="55" width="5" height="5" stroke="white"/>
<rect x="54.9999" y="70" width="5" height="5" fill="#D9D9D9"/>
<rect x="54.9999" y="70" width="5" height="5" stroke="white"/>
<rect x="54.9999" y="60" width="5" height="5" fill="#EAC496"/>
<rect x="54.9999" y="60" width="5" height="5" stroke="white"/>
<rect x="54.9999" y="80" width="5" height="5" fill="black"/>
<rect x="54.9999" y="80" width="5" height="5" stroke="white"/>
<rect x="54.9999" y="65" width="5" height="5" fill="black"/>
<rect x="54.9999" y="65" width="5" height="5" stroke="white"/>
<rect x="75" y="70" width="5" height="5" fill="#D9D9D9"/>
<rect x="75" y="70" width="5" height="5" stroke="white"/>
<rect x="54.9999" y="75" width="5" height="5" fill="black"/>
<rect x="54.9999" y="75" width="5" height="5" stroke="white"/>
<rect x="60" y="20" width="5" height="5" fill="#4E2B08"/>
<rect x="60" y="20" width="5" height="5" stroke="white"/>
<rect x="60" y="25" width="5" height="5" fill="#4E2B08"/>
<rect x="60" y="25" width="5" height="5" stroke="white"/>
<rect x="65" y="25" width="5" height="5" fill="#4E2B08"/>
<rect x="65" y="25" width="5" height="5" stroke="white"/>
<rect x="60" y="30" width="5" height="5" fill="#EAC496"/>
<rect x="60" y="30" width="5" height="5" stroke="white"/>
<rect x="60" y="35" width="5" height="5" fill="#EAC496"/>
<rect x="60" y="35" width="5" height="5" stroke="white"/>
<rect x="60" y="40" width="5" height="5" fill="#AF8E6D"/>
<rect x="60" y="40" width="5" height="5" stroke="white"/>
<rect x="60" y="45" width="5" height="5" fill="#EFD7BF"/>
<rect x="60" y="45" width="5" height="5" stroke="white"/>
<rect x="60" y="50" width="5" height="5" fill="#EAC496"/>
<rect x="60" y="50" width="5" height="5" stroke="white"/>
<rect x="60" y="55" width="5" height="5" fill="#EAC496"/>
<rect x="60" y="55" width="5" height="5" stroke="white"/>
<rect x="60" y="60" width="5" height="5" fill="#EAC496"/>
<rect x="60" y="60" width="5" height="5" stroke="white"/>
<rect x="60" y="65" width="5" height="5" fill="black"/>
<rect x="60" y="65" width="5" height="5" stroke="white"/>
<rect x="65" y="20" width="5" height="5" fill="#4E2B08"/>
<rect x="65" y="20" width="5" height="5" stroke="white"/>
<rect x="70" y="20" width="5" height="5" fill="#4E2B08"/>
<rect x="70" y="20" width="5" height="5" stroke="white"/>
</svg>
